solid OpenSCAD_Model
  facet normal 0 0 -1
    outer loop
      vertex 60 2 0
      vertex 60 21 0
      vertex 63 0 0
    endloop
  endfacet
  facet normal 0 0 -1
    outer loop
      vertex 0 21 0
      vertex 12 25 0
      vertex 24 23 0
    endloop
  endfacet
  facet normal -0 0 -1
    outer loop
      vertex 63 23 0
      vertex 60 21 0
      vertex 24 23 0
    endloop
  endfacet
  facet normal -0 0 -1
    outer loop
      vertex 60 2 0
      vertex 0 0 0
      vertex 0 2 0
    endloop
  endfacet
  facet normal 0 -0 -1
    outer loop
      vertex 60 2 0
      vertex 63 0 0
      vertex 0 0 0
    endloop
  endfacet
  facet normal 0 0 -1
    outer loop
      vertex 60 21 0
      vertex 63 23 0
      vertex 63 0 0
    endloop
  endfacet
  facet normal 0 0 -1
    outer loop
      vertex 0 21 0
      vertex 24 23 0
      vertex 60 21 0
    endloop
  endfacet
  facet normal 0 0 -1
    outer loop
      vertex 10.9547 25.0548 0
      vertex 12 25.0548 0
      vertex 12 25 0
    endloop
  endfacet
  facet normal 0 0 -1
    outer loop
      vertex 0 21 0
      vertex 8.90982 25.4894 0
      vertex 10.9547 25.0548 0
    endloop
  endfacet
  facet normal 0 0 -1
    outer loop
      vertex 0 21 0
      vertex 5.30869 27.5685 0
      vertex 7 26.3397 0
    endloop
  endfacet
  facet normal 0 0 -1
    outer loop
      vertex 0 21 0
      vertex 10.9547 25.0548 0
      vertex 12 25 0
    endloop
  endfacet
  facet normal 0 0 -1
    outer loop
      vertex 0 21 0
      vertex 7 26.3397 0
      vertex 8.90982 25.4894 0
    endloop
  endfacet
  facet normal 0 0 -1
    outer loop
      vertex 0 21 0
      vertex 3.90982 29.1221 0
      vertex 5.30869 27.5685 0
    endloop
  endfacet
  facet normal 0 0 -1
    outer loop
      vertex 0 21 0
      vertex 2.86453 30.9326 0
      vertex 3.90982 29.1221 0
    endloop
  endfacet
  facet normal 0 0 -1
    outer loop
      vertex 0 35 0
      vertex 2.21852 32.9209 0
      vertex 2.86453 30.9326 0
    endloop
  endfacet
  facet normal 0 0 -1
    outer loop
      vertex 2.21852 37.0791 0
      vertex 2 35 0
      vertex 0 35 0
    endloop
  endfacet
  facet normal -0 0 -1
    outer loop
      vertex 2.86453 39.0674 0
      vertex 0.262222 37.4949 0
      vertex 1.03745 39.8808 0
    endloop
  endfacet
  facet normal 0 0 -1
    outer loop
      vertex 2.86453 39.0674 0
      vertex 2.21852 37.0791 0
      vertex 0.262222 37.4949 0
    endloop
  endfacet
  facet normal 0 -0 -1
    outer loop
      vertex 2.29179 42.0534 0
      vertex 3.90982 40.8778 0
      vertex 1.03745 39.8808 0
    endloop
  endfacet
  facet normal 0 -0 -1
    outer loop
      vertex 3.97043 43.9177 0
      vertex 5.30869 42.4314 0
      vertex 2.29179 42.0534 0
    endloop
  endfacet
  facet normal 0 -0 -1
    outer loop
      vertex 6 45.3923 0
      vertex 7 43.6602 0
      vertex 3.97043 43.9177 0
    endloop
  endfacet
  facet normal 0 -0 -1
    outer loop
      vertex 8.29179 46.4127 0
      vertex 8.90982 44.5106 0
      vertex 6 45.3923 0
    endloop
  endfacet
  facet normal 0 -0 -1
    outer loop
      vertex 10.7457 46.9342 0
      vertex 10.9547 44.9452 0
      vertex 8.90982 44.5106 0
    endloop
  endfacet
  facet normal -0 0 -1
    outer loop
      vertex 13.2543 46.9342 0
      vertex 13.0453 44.9452 0
      vertex 10.7457 46.9342 0
    endloop
  endfacet
  facet normal -0 0 -1
    outer loop
      vertex 15.7082 46.4127 0
      vertex 15.0902 44.5106 0
      vertex 13.2543 46.9342 0
    endloop
  endfacet
  facet normal 0 0 -1
    outer loop
      vertex 18 45.3923 0
      vertex 17 43.6602 0
      vertex 15.0902 44.5106 0
    endloop
  endfacet
  facet normal 0 0 -1
    outer loop
      vertex 20.0296 43.9177 0
      vertex 18.6913 42.4314 0
      vertex 17 43.6602 0
    endloop
  endfacet
  facet normal 0 0 -1
    outer loop
      vertex 18.6913 42.4314 0
      vertex 21.7082 42.0534 0
      vertex 20.0902 40.8778 0
    endloop
  endfacet
  facet normal 0 0 -1
    outer loop
      vertex 20.0902 40.8778 0
      vertex 22.9625 39.8808 0
      vertex 21.1355 39.0674 0
    endloop
  endfacet
  facet normal 0 0 -1
    outer loop
      vertex 21.1355 39.0674 0
      vertex 22.9625 39.8808 0
      vertex 23.7378 37.4949 0
    endloop
  endfacet
  facet normal 0 0 -1
    outer loop
      vertex 22 35 0
      vertex 23.7378 37.4949 0
      vertex 24 35 0
    endloop
  endfacet
  facet normal 0 0 -1
    outer loop
      vertex 21.7815 37.0791 0
      vertex 23.7378 37.4949 0
      vertex 22 35 0
    endloop
  endfacet
  facet normal 0 0 -1
    outer loop
      vertex 24 27 0
      vertex 21.1355 30.9326 0
      vertex 21.7815 32.9209 0
    endloop
  endfacet
  facet normal 0 0 -1
    outer loop
      vertex 24 27 0
      vertex 20.0902 29.1221 0
      vertex 21.1355 30.9326 0
    endloop
  endfacet
  facet normal 0 0 -1
    outer loop
      vertex 24 27 0
      vertex 18.6913 27.5685 0
      vertex 20.0902 29.1221 0
    endloop
  endfacet
  facet normal 0 0 -1
    outer loop
      vertex 21.7815 37.0791 0
      vertex 21.1355 39.0674 0
      vertex 23.7378 37.4949 0
    endloop
  endfacet
  facet normal 0 -0 -1
    outer loop
      vertex 22 35 0
      vertex 24 35 0
      vertex 21.7815 32.9209 0
    endloop
  endfacet
  facet normal 0 0 -1
    outer loop
      vertex 24 27 0
      vertex 21.7815 32.9209 0
      vertex 24 35 0
    endloop
  endfacet
  facet normal 0 -0 -1
    outer loop
      vertex 18.6913 27.5685 0
      vertex 24 27 0
      vertex 17.9088 27 0
    endloop
  endfacet
  facet normal 0 0 -1
    outer loop
      vertex 20.0902 40.8778 0
      vertex 21.7082 42.0534 0
      vertex 22.9625 39.8808 0
    endloop
  endfacet
  facet normal 0 -0 -1
    outer loop
      vertex 20.0296 43.9177 0
      vertex 21.7082 42.0534 0
      vertex 18.6913 42.4314 0
    endloop
  endfacet
  facet normal 0 -0 -1
    outer loop
      vertex 18 45.3923 0
      vertex 20.0296 43.9177 0
      vertex 17 43.6602 0
    endloop
  endfacet
  facet normal 0 -0 -1
    outer loop
      vertex 15.7082 46.4127 0
      vertex 18 45.3923 0
      vertex 15.0902 44.5106 0
    endloop
  endfacet
  facet normal 0 -0 -1
    outer loop
      vertex 13.2543 46.9342 0
      vertex 15.0902 44.5106 0
      vertex 13.0453 44.9452 0
    endloop
  endfacet
  facet normal 0 0 -1
    outer loop
      vertex 10.7457 46.9342 0
      vertex 13.0453 44.9452 0
      vertex 10.9547 44.9452 0
    endloop
  endfacet
  facet normal 0 0 -1
    outer loop
      vertex 8.29179 46.4127 0
      vertex 10.7457 46.9342 0
      vertex 8.90982 44.5106 0
    endloop
  endfacet
  facet normal 0 0 -1
    outer loop
      vertex 6 45.3923 0
      vertex 8.90982 44.5106 0
      vertex 7 43.6602 0
    endloop
  endfacet
  facet normal 0 0 -1
    outer loop
      vertex 3.97043 43.9177 0
      vertex 7 43.6602 0
      vertex 5.30869 42.4314 0
    endloop
  endfacet
  facet normal 0 0 -1
    outer loop
      vertex 2.29179 42.0534 0
      vertex 5.30869 42.4314 0
      vertex 3.90982 40.8778 0
    endloop
  endfacet
  facet normal 0 0 -1
    outer loop
      vertex 1.03745 39.8808 0
      vertex 3.90982 40.8778 0
      vertex 2.86453 39.0674 0
    endloop
  endfacet
  facet normal 0 -0 -1
    outer loop
      vertex 0.262222 37.4949 0
      vertex 2.21852 37.0791 0
      vertex 0 35 0
    endloop
  endfacet
  facet normal 0 0 -1
    outer loop
      vertex 0 35 0
      vertex 2 35 0
      vertex 2.21852 32.9209 0
    endloop
  endfacet
  facet normal 0 0 -1
    outer loop
      vertex 0 21 0
      vertex 0 35 0
      vertex 2.86453 30.9326 0
    endloop
  endfacet
  facet normal 0 0 1
    outer loop
      vertex 63 0 16
      vertex 60 21 16
      vertex 60 2 16
    endloop
  endfacet
  facet normal 0 0 1
    outer loop
      vertex 24 23 16
      vertex 12 25 16
      vertex 0 21 16
    endloop
  endfacet
  facet normal -0 0 1
    outer loop
      vertex 24 23 16
      vertex 60 21 16
      vertex 63 23 16
    endloop
  endfacet
  facet normal -0 0 1
    outer loop
      vertex 0 2 16
      vertex 0 0 16
      vertex 60 2 16
    endloop
  endfacet
  facet normal 0 0 1
    outer loop
      vertex 0 0 16
      vertex 63 0 16
      vertex 60 2 16
    endloop
  endfacet
  facet normal 0 -0 1
    outer loop
      vertex 63 0 16
      vertex 63 23 16
      vertex 60 21 16
    endloop
  endfacet
  facet normal 0 0 1
    outer loop
      vertex 60 21 16
      vertex 24 23 16
      vertex 0 21 16
    endloop
  endfacet
  facet normal 0 -0 1
    outer loop
      vertex 12 25 16
      vertex 12 25.0548 16
      vertex 10.9547 25.0548 16
    endloop
  endfacet
  facet normal 0 0 1
    outer loop
      vertex 10.9547 25.0548 16
      vertex 8.90982 25.4894 16
      vertex 0 21 16
    endloop
  endfacet
  facet normal 0 0 1
    outer loop
      vertex 7 26.3397 16
      vertex 5.30869 27.5685 16
      vertex 0 21 16
    endloop
  endfacet
  facet normal 0 0 1
    outer loop
      vertex 12 25 16
      vertex 10.9547 25.0548 16
      vertex 0 21 16
    endloop
  endfacet
  facet normal 0 0 1
    outer loop
      vertex 8.90982 25.4894 16
      vertex 7 26.3397 16
      vertex 0 21 16
    endloop
  endfacet
  facet normal 0 0 1
    outer loop
      vertex 5.30869 27.5685 16
      vertex 3.90982 29.1221 16
      vertex 0 21 16
    endloop
  endfacet
  facet normal 0 0 1
    outer loop
      vertex 3.90982 29.1221 16
      vertex 2.86453 30.9326 16
      vertex 0 21 16
    endloop
  endfacet
  facet normal 0 0 1
    outer loop
      vertex 2.86453 30.9326 16
      vertex 2.21852 32.9209 16
      vertex 0 35 16
    endloop
  endfacet
  facet normal 0 0 1
    outer loop
      vertex 0 35 16
      vertex 2 35 16
      vertex 2.21852 37.0791 16
    endloop
  endfacet
  facet normal 0 0 1
    outer loop
      vertex 1.03745 39.8808 16
      vertex 0.262222 37.4949 16
      vertex 2.86453 39.0674 16
    endloop
  endfacet
  facet normal -0 0 1
    outer loop
      vertex 0.262222 37.4949 16
      vertex 2.21852 37.0791 16
      vertex 2.86453 39.0674 16
    endloop
  endfacet
  facet normal 0 0 1
    outer loop
      vertex 1.03745 39.8808 16
      vertex 3.90982 40.8778 16
      vertex 2.29179 42.0534 16
    endloop
  endfacet
  facet normal 0 0 1
    outer loop
      vertex 2.29179 42.0534 16
      vertex 5.30869 42.4314 16
      vertex 3.97043 43.9177 16
    endloop
  endfacet
  facet normal -0 0 1
    outer loop
      vertex 3.97043 43.9177 16
      vertex 7 43.6602 16
      vertex 6 45.3923 16
    endloop
  endfacet
  facet normal -0 0 1
    outer loop
      vertex 6 45.3923 16
      vertex 8.90982 44.5106 16
      vertex 8.29179 46.4127 16
    endloop
  endfacet
  facet normal 0 0 1
    outer loop
      vertex 8.90982 44.5106 16
      vertex 10.9547 44.9452 16
      vertex 10.7457 46.9342 16
    endloop
  endfacet
  facet normal -0 0 1
    outer loop
      vertex 10.7457 46.9342 16
      vertex 13.0453 44.9452 16
      vertex 13.2543 46.9342 16
    endloop
  endfacet
  facet normal 0 0 1
    outer loop
      vertex 13.2543 46.9342 16
      vertex 15.0902 44.5106 16
      vertex 15.7082 46.4127 16
    endloop
  endfacet
  facet normal -0 0 1
    outer loop
      vertex 15.0902 44.5106 16
      vertex 17 43.6602 16
      vertex 18 45.3923 16
    endloop
  endfacet
  facet normal -0 0 1
    outer loop
      vertex 17 43.6602 16
      vertex 18.6913 42.4314 16
      vertex 20.0296 43.9177 16
    endloop
  endfacet
  facet normal 0 -0 1
    outer loop
      vertex 20.0902 40.8778 16
      vertex 21.7082 42.0534 16
      vertex 18.6913 42.4314 16
    endloop
  endfacet
  facet normal 0 -0 1
    outer loop
      vertex 21.1355 39.0674 16
      vertex 22.9625 39.8808 16
      vertex 20.0902 40.8778 16
    endloop
  endfacet
  facet normal 0 0 1
    outer loop
      vertex 23.7378 37.4949 16
      vertex 22.9625 39.8808 16
      vertex 21.1355 39.0674 16
    endloop
  endfacet
  facet normal 0 0 1
    outer loop
      vertex 24 35 16
      vertex 23.7378 37.4949 16
      vertex 22 35 16
    endloop
  endfacet
  facet normal 0 -0 1
    outer loop
      vertex 22 35 16
      vertex 23.7378 37.4949 16
      vertex 21.7815 37.0791 16
    endloop
  endfacet
  facet normal 0 0 1
    outer loop
      vertex 21.7815 32.9209 16
      vertex 21.1355 30.9326 16
      vertex 24 27 16
    endloop
  endfacet
  facet normal 0 0 1
    outer loop
      vertex 21.1355 30.9326 16
      vertex 20.0902 29.1221 16
      vertex 24 27 16
    endloop
  endfacet
  facet normal 0 0 1
    outer loop
      vertex 20.0902 29.1221 16
      vertex 18.6913 27.5685 16
      vertex 24 27 16
    endloop
  endfacet
  facet normal 0 0 1
    outer loop
      vertex 23.7378 37.4949 16
      vertex 21.1355 39.0674 16
      vertex 21.7815 37.0791 16
    endloop
  endfacet
  facet normal 0 0 1
    outer loop
      vertex 21.7815 32.9209 16
      vertex 24 35 16
      vertex 22 35 16
    endloop
  endfacet
  facet normal 0 0 1
    outer loop
      vertex 24 35 16
      vertex 21.7815 32.9209 16
      vertex 24 27 16
    endloop
  endfacet
  facet normal 0 0 1
    outer loop
      vertex 17.9088 27 16
      vertex 24 27 16
      vertex 18.6913 27.5685 16
    endloop
  endfacet
  facet normal 0 0 1
    outer loop
      vertex 22.9625 39.8808 16
      vertex 21.7082 42.0534 16
      vertex 20.0902 40.8778 16
    endloop
  endfacet
  facet normal -0 0 1
    outer loop
      vertex 18.6913 42.4314 16
      vertex 21.7082 42.0534 16
      vertex 20.0296 43.9177 16
    endloop
  endfacet
  facet normal 0 0 1
    outer loop
      vertex 17 43.6602 16
      vertex 20.0296 43.9177 16
      vertex 18 45.3923 16
    endloop
  endfacet
  facet normal 0 0 1
    outer loop
      vertex 15.0902 44.5106 16
      vertex 18 45.3923 16
      vertex 15.7082 46.4127 16
    endloop
  endfacet
  facet normal -0 0 1
    outer loop
      vertex 13.0453 44.9452 16
      vertex 15.0902 44.5106 16
      vertex 13.2543 46.9342 16
    endloop
  endfacet
  facet normal 0 -0 1
    outer loop
      vertex 10.9547 44.9452 16
      vertex 13.0453 44.9452 16
      vertex 10.7457 46.9342 16
    endloop
  endfacet
  facet normal 0 -0 1
    outer loop
      vertex 8.90982 44.5106 16
      vertex 10.7457 46.9342 16
      vertex 8.29179 46.4127 16
    endloop
  endfacet
  facet normal 0 -0 1
    outer loop
      vertex 7 43.6602 16
      vertex 8.90982 44.5106 16
      vertex 6 45.3923 16
    endloop
  endfacet
  facet normal 0 -0 1
    outer loop
      vertex 5.30869 42.4314 16
      vertex 7 43.6602 16
      vertex 3.97043 43.9177 16
    endloop
  endfacet
  facet normal 0 -0 1
    outer loop
      vertex 3.90982 40.8778 16
      vertex 5.30869 42.4314 16
      vertex 2.29179 42.0534 16
    endloop
  endfacet
  facet normal 0 -0 1
    outer loop
      vertex 2.86453 39.0674 16
      vertex 3.90982 40.8778 16
      vertex 1.03745 39.8808 16
    endloop
  endfacet
  facet normal 0 0 1
    outer loop
      vertex 0 35 16
      vertex 2.21852 37.0791 16
      vertex 0.262222 37.4949 16
    endloop
  endfacet
  facet normal 0 0 1
    outer loop
      vertex 2.21852 32.9209 16
      vertex 2 35 16
      vertex 0 35 16
    endloop
  endfacet
  facet normal 0 0 1
    outer loop
      vertex 2.86453 30.9326 16
      vertex 0 35 16
      vertex 0 21 16
    endloop
  endfacet
  facet normal -1 0 0
    outer loop
      vertex 60 2 0
      vertex 60 21 16
      vertex 60 21 0
    endloop
  endfacet
  facet normal -1 0 0
    outer loop
      vertex 60 2 0
      vertex 60 2 16
      vertex 60 21 16
    endloop
  endfacet
  facet normal 0 1 0
    outer loop
      vertex 0 2 0
      vertex 60 2 16
      vertex 60 2 0
    endloop
  endfacet
  facet normal 0 1 0
    outer loop
      vertex 0 2 0
      vertex 0 2 16
      vertex 60 2 16
    endloop
  endfacet
  facet normal -1 0 0
    outer loop
      vertex 0 0 0
      vertex 0 2 16
      vertex 0 2 0
    endloop
  endfacet
  facet normal -1 0 0
    outer loop
      vertex 0 0 0
      vertex 0 0 16
      vertex 0 2 16
    endloop
  endfacet
  facet normal 0 -1 0
    outer loop
      vertex 63 0 0
      vertex 0 0 16
      vertex 0 0 0
    endloop
  endfacet
  facet normal 0 -1 0
    outer loop
      vertex 63 0 0
      vertex 63 0 16
      vertex 0 0 16
    endloop
  endfacet
  facet normal 1 0 0
    outer loop
      vertex 63 23 0
      vertex 63 0 16
      vertex 63 0 0
    endloop
  endfacet
  facet normal 1 0 -0
    outer loop
      vertex 63 23 0
      vertex 63 23 16
      vertex 63 0 16
    endloop
  endfacet
  facet normal 0 1 0
    outer loop
      vertex 24 23 0
      vertex 63 23 16
      vertex 63 23 0
    endloop
  endfacet
  facet normal 0 1 0
    outer loop
      vertex 24 23 0
      vertex 24 23 16
      vertex 63 23 16
    endloop
  endfacet
  facet normal 0.164399 0.986394 0
    outer loop
      vertex 12 25 0
      vertex 24 23 16
      vertex 24 23 0
    endloop
  endfacet
  facet normal 0.164399 0.986394 -0
    outer loop
      vertex 12 25 0
      vertex 12 25 16
      vertex 24 23 16
    endloop
  endfacet
  facet normal 1 0 0
    outer loop
      vertex 12 25.0548 0
      vertex 12 25 16
      vertex 12 25 0
    endloop
  endfacet
  facet normal 1 0 -0
    outer loop
      vertex 12 25.0548 0
      vertex 12 25.0548 16
      vertex 12 25 16
    endloop
  endfacet
  facet normal 0 1 0
    outer loop
      vertex 10.9547 25.0548 0
      vertex 12 25.0548 16
      vertex 12 25.0548 0
    endloop
  endfacet
  facet normal 0 1 0
    outer loop
      vertex 10.9547 25.0548 0
      vertex 10.9547 25.0548 16
      vertex 12 25.0548 16
    endloop
  endfacet
  facet normal 0.207888 0.978153 0
    outer loop
      vertex 8.90982 25.4894 0
      vertex 10.9547 25.0548 16
      vertex 10.9547 25.0548 0
    endloop
  endfacet
  facet normal 0.207888 0.978153 -0
    outer loop
      vertex 8.90982 25.4894 0
      vertex 8.90982 25.4894 16
      vertex 10.9547 25.0548 16
    endloop
  endfacet
  facet normal 0.406734 0.913547 0
    outer loop
      vertex 7 26.3397 0
      vertex 8.90982 25.4894 16
      vertex 8.90982 25.4894 0
    endloop
  endfacet
  facet normal 0.406734 0.913547 -0
    outer loop
      vertex 7 26.3397 0
      vertex 7 26.3397 16
      vertex 8.90982 25.4894 16
    endloop
  endfacet
  facet normal 0.587783 0.809019 0
    outer loop
      vertex 5.30869 27.5685 0
      vertex 7 26.3397 16
      vertex 7 26.3397 0
    endloop
  endfacet
  facet normal 0.587783 0.809019 -0
    outer loop
      vertex 5.30869 27.5685 0
      vertex 5.30869 27.5685 16
      vertex 7 26.3397 16
    endloop
  endfacet
  facet normal 0.743144 0.669131 0
    outer loop
      vertex 3.90982 29.1221 0
      vertex 5.30869 27.5685 16
      vertex 5.30869 27.5685 0
    endloop
  endfacet
  facet normal 0.743144 0.669131 -0
    outer loop
      vertex 3.90982 29.1221 0
      vertex 3.90982 29.1221 16
      vertex 5.30869 27.5685 16
    endloop
  endfacet
  facet normal 0.866026 0.499999 0
    outer loop
      vertex 2.86453 30.9326 0
      vertex 3.90982 29.1221 16
      vertex 3.90982 29.1221 0
    endloop
  endfacet
  facet normal 0.866026 0.499999 -0
    outer loop
      vertex 2.86453 30.9326 0
      vertex 2.86453 30.9326 16
      vertex 3.90982 29.1221 16
    endloop
  endfacet
  facet normal 0.95106 0.309005 0
    outer loop
      vertex 2.21852 32.9209 0
      vertex 2.86453 30.9326 16
      vertex 2.86453 30.9326 0
    endloop
  endfacet
  facet normal 0.95106 0.309005 -0
    outer loop
      vertex 2.21852 32.9209 0
      vertex 2.21852 32.9209 16
      vertex 2.86453 30.9326 16
    endloop
  endfacet
  facet normal 0.994522 0.104527 0
    outer loop
      vertex 2 35 0
      vertex 2.21852 32.9209 16
      vertex 2.21852 32.9209 0
    endloop
  endfacet
  facet normal 0.994522 0.104527 -0
    outer loop
      vertex 2 35 0
      vertex 2 35 16
      vertex 2.21852 32.9209 16
    endloop
  endfacet
  facet normal 0.994522 -0.104527 0
    outer loop
      vertex 2.21852 37.0791 0
      vertex 2 35 16
      vertex 2 35 0
    endloop
  endfacet
  facet normal 0.994522 -0.104527 0
    outer loop
      vertex 2.21852 37.0791 0
      vertex 2.21852 37.0791 16
      vertex 2 35 16
    endloop
  endfacet
  facet normal 0.95106 -0.309005 0
    outer loop
      vertex 2.86453 39.0674 0
      vertex 2.21852 37.0791 16
      vertex 2.21852 37.0791 0
    endloop
  endfacet
  facet normal 0.95106 -0.309005 0
    outer loop
      vertex 2.86453 39.0674 0
      vertex 2.86453 39.0674 16
      vertex 2.21852 37.0791 16
    endloop
  endfacet
  facet normal 0.866014 -0.50002 0
    outer loop
      vertex 3.90982 40.8778 0
      vertex 2.86453 39.0674 16
      vertex 2.86453 39.0674 0
    endloop
  endfacet
  facet normal 0.866014 -0.50002 0
    outer loop
      vertex 3.90982 40.8778 0
      vertex 3.90982 40.8778 16
      vertex 2.86453 39.0674 16
    endloop
  endfacet
  facet normal 0.743144 -0.669131 0
    outer loop
      vertex 5.30869 42.4314 0
      vertex 3.90982 40.8778 16
      vertex 3.90982 40.8778 0
    endloop
  endfacet
  facet normal 0.743144 -0.669131 0
    outer loop
      vertex 5.30869 42.4314 0
      vertex 5.30869 42.4314 16
      vertex 3.90982 40.8778 16
    endloop
  endfacet
  facet normal 0.587783 -0.809019 0
    outer loop
      vertex 7 43.6602 0
      vertex 5.30869 42.4314 16
      vertex 5.30869 42.4314 0
    endloop
  endfacet
  facet normal 0.587783 -0.809019 0
    outer loop
      vertex 7 43.6602 0
      vertex 7 43.6602 16
      vertex 5.30869 42.4314 16
    endloop
  endfacet
  facet normal 0.406774 -0.913529 0
    outer loop
      vertex 8.90982 44.5106 0
      vertex 7 43.6602 16
      vertex 7 43.6602 0
    endloop
  endfacet
  facet normal 0.406774 -0.913529 0
    outer loop
      vertex 8.90982 44.5106 0
      vertex 8.90982 44.5106 16
      vertex 7 43.6602 16
    endloop
  endfacet
  facet normal 0.207888 -0.978153 0
    outer loop
      vertex 10.9547 44.9452 0
      vertex 8.90982 44.5106 16
      vertex 8.90982 44.5106 0
    endloop
  endfacet
  facet normal 0.207888 -0.978153 0
    outer loop
      vertex 10.9547 44.9452 0
      vertex 10.9547 44.9452 16
      vertex 8.90982 44.5106 16
    endloop
  endfacet
  facet normal 0 -1 0
    outer loop
      vertex 13.0453 44.9452 0
      vertex 10.9547 44.9452 16
      vertex 10.9547 44.9452 0
    endloop
  endfacet
  facet normal 0 -1 0
    outer loop
      vertex 13.0453 44.9452 0
      vertex 13.0453 44.9452 16
      vertex 10.9547 44.9452 16
    endloop
  endfacet
  facet normal -0.207886 -0.978153 0
    outer loop
      vertex 15.0902 44.5106 0
      vertex 13.0453 44.9452 16
      vertex 13.0453 44.9452 0
    endloop
  endfacet
  facet normal -0.207886 -0.978153 0
    outer loop
      vertex 15.0902 44.5106 0
      vertex 15.0902 44.5106 16
      vertex 13.0453 44.9452 16
    endloop
  endfacet
  facet normal -0.406777 -0.913527 0
    outer loop
      vertex 17 43.6602 0
      vertex 15.0902 44.5106 16
      vertex 15.0902 44.5106 0
    endloop
  endfacet
  facet normal -0.406777 -0.913527 0
    outer loop
      vertex 17 43.6602 0
      vertex 17 43.6602 16
      vertex 15.0902 44.5106 16
    endloop
  endfacet
  facet normal -0.587785 -0.809017 0
    outer loop
      vertex 18.6913 42.4314 0
      vertex 17 43.6602 16
      vertex 17 43.6602 0
    endloop
  endfacet
  facet normal -0.587785 -0.809017 0
    outer loop
      vertex 18.6913 42.4314 0
      vertex 18.6913 42.4314 16
      vertex 17 43.6602 16
    endloop
  endfacet
  facet normal -0.743137 -0.669139 0
    outer loop
      vertex 20.0902 40.8778 0
      vertex 18.6913 42.4314 16
      vertex 18.6913 42.4314 0
    endloop
  endfacet
  facet normal -0.743137 -0.669139 0
    outer loop
      vertex 20.0902 40.8778 0
      vertex 20.0902 40.8778 16
      vertex 18.6913 42.4314 16
    endloop
  endfacet
  facet normal -0.866012 -0.500023 0
    outer loop
      vertex 21.1355 39.0674 0
      vertex 20.0902 40.8778 16
      vertex 20.0902 40.8778 0
    endloop
  endfacet
  facet normal -0.866012 -0.500023 0
    outer loop
      vertex 21.1355 39.0674 0
      vertex 21.1355 39.0674 16
      vertex 20.0902 40.8778 16
    endloop
  endfacet
  facet normal -0.951062 -0.309001 0
    outer loop
      vertex 21.7815 37.0791 0
      vertex 21.1355 39.0674 16
      vertex 21.1355 39.0674 0
    endloop
  endfacet
  facet normal -0.951062 -0.309001 0
    outer loop
      vertex 21.7815 37.0791 0
      vertex 21.7815 37.0791 16
      vertex 21.1355 39.0674 16
    endloop
  endfacet
  facet normal -0.994523 -0.104518 0
    outer loop
      vertex 22 35 0
      vertex 21.7815 37.0791 16
      vertex 21.7815 37.0791 0
    endloop
  endfacet
  facet normal -0.994523 -0.104518 0
    outer loop
      vertex 22 35 0
      vertex 22 35 16
      vertex 21.7815 37.0791 16
    endloop
  endfacet
  facet normal -0.994523 0.104518 0
    outer loop
      vertex 21.7815 32.9209 0
      vertex 22 35 16
      vertex 22 35 0
    endloop
  endfacet
  facet normal -0.994523 0.104518 0
    outer loop
      vertex 21.7815 32.9209 0
      vertex 21.7815 32.9209 16
      vertex 22 35 16
    endloop
  endfacet
  facet normal -0.951062 0.309001 0
    outer loop
      vertex 21.1355 30.9326 0
      vertex 21.7815 32.9209 16
      vertex 21.7815 32.9209 0
    endloop
  endfacet
  facet normal -0.951062 0.309001 0
    outer loop
      vertex 21.1355 30.9326 0
      vertex 21.1355 30.9326 16
      vertex 21.7815 32.9209 16
    endloop
  endfacet
  facet normal -0.866024 0.500003 0
    outer loop
      vertex 20.0902 29.1221 0
      vertex 21.1355 30.9326 16
      vertex 21.1355 30.9326 0
    endloop
  endfacet
  facet normal -0.866024 0.500003 0
    outer loop
      vertex 20.0902 29.1221 0
      vertex 20.0902 29.1221 16
      vertex 21.1355 30.9326 16
    endloop
  endfacet
  facet normal -0.743137 0.669139 0
    outer loop
      vertex 18.6913 27.5685 0
      vertex 20.0902 29.1221 16
      vertex 20.0902 29.1221 0
    endloop
  endfacet
  facet normal -0.743137 0.669139 0
    outer loop
      vertex 18.6913 27.5685 0
      vertex 18.6913 27.5685 16
      vertex 20.0902 29.1221 16
    endloop
  endfacet
  facet normal -0.587772 0.809027 0
    outer loop
      vertex 17.9088 27 0
      vertex 18.6913 27.5685 16
      vertex 18.6913 27.5685 0
    endloop
  endfacet
  facet normal -0.587772 0.809027 0
    outer loop
      vertex 17.9088 27 0
      vertex 17.9088 27 16
      vertex 18.6913 27.5685 16
    endloop
  endfacet
  facet normal 0 -1 0
    outer loop
      vertex 24 27 0
      vertex 17.9088 27 16
      vertex 17.9088 27 0
    endloop
  endfacet
  facet normal 0 -1 0
    outer loop
      vertex 24 27 0
      vertex 24 27 16
      vertex 17.9088 27 16
    endloop
  endfacet
  facet normal 1 0 0
    outer loop
      vertex 24 35 0
      vertex 24 27 16
      vertex 24 27 0
    endloop
  endfacet
  facet normal 1 0 -0
    outer loop
      vertex 24 35 0
      vertex 24 35 16
      vertex 24 27 16
    endloop
  endfacet
  facet normal 0.994523 0.104519 0
    outer loop
      vertex 23.7378 37.4949 0
      vertex 24 35 16
      vertex 24 35 0
    endloop
  endfacet
  facet normal 0.994523 0.104519 -0
    outer loop
      vertex 23.7378 37.4949 0
      vertex 23.7378 37.4949 16
      vertex 24 35 16
    endloop
  endfacet
  facet normal 0.951048 0.309044 0
    outer loop
      vertex 22.9625 39.8808 0
      vertex 23.7378 37.4949 16
      vertex 23.7378 37.4949 0
    endloop
  endfacet
  facet normal 0.951048 0.309044 -0
    outer loop
      vertex 22.9625 39.8808 0
      vertex 22.9625 39.8808 16
      vertex 23.7378 37.4949 16
    endloop
  endfacet
  facet normal 0.866034 0.499985 0
    outer loop
      vertex 21.7082 42.0534 0
      vertex 22.9625 39.8808 16
      vertex 22.9625 39.8808 0
    endloop
  endfacet
  facet normal 0.866034 0.499985 -0
    outer loop
      vertex 21.7082 42.0534 0
      vertex 21.7082 42.0534 16
      vertex 22.9625 39.8808 16
    endloop
  endfacet
  facet normal 0.743149 0.669125 0
    outer loop
      vertex 20.0296 43.9177 0
      vertex 21.7082 42.0534 16
      vertex 21.7082 42.0534 0
    endloop
  endfacet
  facet normal 0.743149 0.669125 -0
    outer loop
      vertex 20.0296 43.9177 0
      vertex 20.0296 43.9177 16
      vertex 21.7082 42.0534 16
    endloop
  endfacet
  facet normal 0.587788 0.809015 0
    outer loop
      vertex 18 45.3923 0
      vertex 20.0296 43.9177 16
      vertex 20.0296 43.9177 0
    endloop
  endfacet
  facet normal 0.587788 0.809015 -0
    outer loop
      vertex 18 45.3923 0
      vertex 18 45.3923 16
      vertex 20.0296 43.9177 16
    endloop
  endfacet
  facet normal 0.406745 0.913542 0
    outer loop
      vertex 15.7082 46.4127 0
      vertex 18 45.3923 16
      vertex 18 45.3923 0
    endloop
  endfacet
  facet normal 0.406745 0.913542 -0
    outer loop
      vertex 15.7082 46.4127 0
      vertex 15.7082 46.4127 16
      vertex 18 45.3923 16
    endloop
  endfacet
  facet normal 0.207876 0.978155 0
    outer loop
      vertex 13.2543 46.9342 0
      vertex 15.7082 46.4127 16
      vertex 15.7082 46.4127 0
    endloop
  endfacet
  facet normal 0.207876 0.978155 -0
    outer loop
      vertex 13.2543 46.9342 0
      vertex 13.2543 46.9342 16
      vertex 15.7082 46.4127 16
    endloop
  endfacet
  facet normal 0 1 0
    outer loop
      vertex 10.7457 46.9342 0
      vertex 13.2543 46.9342 16
      vertex 13.2543 46.9342 0
    endloop
  endfacet
  facet normal 0 1 0
    outer loop
      vertex 10.7457 46.9342 0
      vertex 10.7457 46.9342 16
      vertex 13.2543 46.9342 16
    endloop
  endfacet
  facet normal -0.207876 0.978155 0
    outer loop
      vertex 8.29179 46.4127 0
      vertex 10.7457 46.9342 16
      vertex 10.7457 46.9342 0
    endloop
  endfacet
  facet normal -0.207876 0.978155 0
    outer loop
      vertex 8.29179 46.4127 0
      vertex 8.29179 46.4127 16
      vertex 10.7457 46.9342 16
    endloop
  endfacet
  facet normal -0.406746 0.913541 0
    outer loop
      vertex 6 45.3923 0
      vertex 8.29179 46.4127 16
      vertex 8.29179 46.4127 0
    endloop
  endfacet
  facet normal -0.406746 0.913541 0
    outer loop
      vertex 6 45.3923 0
      vertex 6 45.3923 16
      vertex 8.29179 46.4127 16
    endloop
  endfacet
  facet normal -0.587793 0.809011 0
    outer loop
      vertex 3.97043 43.9177 0
      vertex 6 45.3923 16
      vertex 6 45.3923 0
    endloop
  endfacet
  facet normal -0.587793 0.809011 0
    outer loop
      vertex 3.97043 43.9177 0
      vertex 3.97043 43.9177 16
      vertex 6 45.3923 16
    endloop
  endfacet
  facet normal -0.743142 0.669134 0
    outer loop
      vertex 2.29179 42.0534 0
      vertex 3.97043 43.9177 16
      vertex 3.97043 43.9177 0
    endloop
  endfacet
  facet normal -0.743142 0.669134 0
    outer loop
      vertex 2.29179 42.0534 0
      vertex 2.29179 42.0534 16
      vertex 3.97043 43.9177 16
    endloop
  endfacet
  facet normal -0.866027 0.499997 0
    outer loop
      vertex 1.03745 39.8808 0
      vertex 2.29179 42.0534 16
      vertex 2.29179 42.0534 0
    endloop
  endfacet
  facet normal -0.866027 0.499997 0
    outer loop
      vertex 1.03745 39.8808 0
      vertex 1.03745 39.8808 16
      vertex 2.29179 42.0534 16
    endloop
  endfacet
  facet normal -0.951056 0.309018 0
    outer loop
      vertex 0.262222 37.4949 0
      vertex 1.03745 39.8808 16
      vertex 1.03745 39.8808 0
    endloop
  endfacet
  facet normal -0.951056 0.309018 0
    outer loop
      vertex 0.262222 37.4949 0
      vertex 0.262222 37.4949 16
      vertex 1.03745 39.8808 16
    endloop
  endfacet
  facet normal -0.994522 0.104527 0
    outer loop
      vertex 0 35 0
      vertex 0.262222 37.4949 16
      vertex 0.262222 37.4949 0
    endloop
  endfacet
  facet normal -0.994522 0.104527 0
    outer loop
      vertex 0 35 0
      vertex 0 35 16
      vertex 0.262222 37.4949 16
    endloop
  endfacet
  facet normal -1 0 0
    outer loop
      vertex 0 21 0
      vertex 0 35 16
      vertex 0 35 0
    endloop
  endfacet
  facet normal -1 0 0
    outer loop
      vertex 0 21 0
      vertex 0 21 16
      vertex 0 35 16
    endloop
  endfacet
  facet normal 0 -1 0
    outer loop
      vertex 60 21 0
      vertex 0 21 16
      vertex 0 21 0
    endloop
  endfacet
  facet normal 0 -1 0
    outer loop
      vertex 60 21 0
      vertex 60 21 16
      vertex 0 21 16
    endloop
  endfacet
endsolid OpenSCAD_Model
