solid OpenSCAD_Model
  facet normal 0 1 0
    outer loop
      vertex 40 0 52
      vertex 40.5 0 53.5
      vertex 47 0 53
    endloop
  endfacet
  facet normal 0 1 -0
    outer loop
      vertex 50 0 50
      vertex 47 0 53
      vertex 51 0 52
    endloop
  endfacet
  facet normal 0 1 0
    outer loop
      vertex 40.5 0 53.5
      vertex 40 0 52
      vertex 39.5 0 53
    endloop
  endfacet
  facet normal 0 1 0
    outer loop
      vertex 50 0 50
      vertex 51 0 52
      vertex 52 0 51
    endloop
  endfacet
  facet normal 0 1 0
    outer loop
      vertex 47 0 53
      vertex 50 0 50
      vertex 40 0 52
    endloop
  endfacet
  facet normal 0 1 0
    outer loop
      vertex 52 0 51
      vertex 50 0 2.5
      vertex 50 0 50
    endloop
  endfacet
  facet normal 0 1 -0
    outer loop
      vertex 52 0 0
      vertex 50 0 2.5
      vertex 52 0 51
    endloop
  endfacet
  facet normal 0 1 0
    outer loop
      vertex 0 0 0
      vertex 50 0 2.5
      vertex 52 0 0
    endloop
  endfacet
  facet normal 0 1 0
    outer loop
      vertex 50 0 2.5
      vertex 0 0 0
      vertex 0 0 2.5
    endloop
  endfacet
  facet normal 0 -1 0
    outer loop
      vertex 0 -55 2.5
      vertex 0 -55 0
      vertex 50 -55 2.5
    endloop
  endfacet
  facet normal 0 -1 0
    outer loop
      vertex 40 -55 52
      vertex 40.5 -55 53.5
      vertex 39.5 -55 53
    endloop
  endfacet
  facet normal 0 -1 -0
    outer loop
      vertex 40.5 -55 53.5
      vertex 40 -55 52
      vertex 47 -55 53
    endloop
  endfacet
  facet normal 0 -1 0
    outer loop
      vertex 50 -55 50
      vertex 47 -55 53
      vertex 40 -55 52
    endloop
  endfacet
  facet normal 0 -1 0
    outer loop
      vertex 47 -55 53
      vertex 50 -55 50
      vertex 51 -55 52
    endloop
  endfacet
  facet normal 0 -1 -0
    outer loop
      vertex 51 -55 52
      vertex 50 -55 50
      vertex 52 -55 51
    endloop
  endfacet
  facet normal 0 -1 0
    outer loop
      vertex 50 -55 2.5
      vertex 52 -55 51
      vertex 50 -55 50
    endloop
  endfacet
  facet normal 0 -1 0
    outer loop
      vertex 50 -55 2.5
      vertex 52 -55 0
      vertex 52 -55 51
    endloop
  endfacet
  facet normal 0 -1 0
    outer loop
      vertex 52 -55 0
      vertex 50 -55 2.5
      vertex 0 -55 0
    endloop
  endfacet
  facet normal 0.707107 -0 0.707107
    outer loop
      vertex 51 -55 52
      vertex 52 0 51
      vertex 51 0 52
    endloop
  endfacet
  facet normal 0.707107 0 0.707107
    outer loop
      vertex 52 0 51
      vertex 51 -55 52
      vertex 52 -55 51
    endloop
  endfacet
  facet normal 0.242536 0 0.970143
    outer loop
      vertex 47 0 53
      vertex 51 -55 52
      vertex 51 0 52
    endloop
  endfacet
  facet normal 0.242536 0 0.970143
    outer loop
      vertex 51 -55 52
      vertex 47 0 53
      vertex 47 -55 53
    endloop
  endfacet
  facet normal 0.0766965 0 0.997054
    outer loop
      vertex 40.5 0 53.5
      vertex 47 -55 53
      vertex 47 0 53
    endloop
  endfacet
  facet normal 0.0766965 0 0.997054
    outer loop
      vertex 47 -55 53
      vertex 40.5 0 53.5
      vertex 40.5 -55 53.5
    endloop
  endfacet
  facet normal -0.447214 0 0.894427
    outer loop
      vertex 39.5 0 53
      vertex 40.5 -55 53.5
      vertex 40.5 0 53.5
    endloop
  endfacet
  facet normal -0.447214 0 0.894427
    outer loop
      vertex 40.5 -55 53.5
      vertex 39.5 0 53
      vertex 39.5 -55 53
    endloop
  endfacet
  facet normal -0.894427 0 -0.447214
    outer loop
      vertex 40 -55 52
      vertex 39.5 0 53
      vertex 40 0 52
    endloop
  endfacet
  facet normal -0.894427 -0 -0.447214
    outer loop
      vertex 39.5 0 53
      vertex 40 -55 52
      vertex 39.5 -55 53
    endloop
  endfacet
  facet normal -0.196116 0 -0.980581
    outer loop
      vertex 40 -55 52
      vertex 50 0 50
      vertex 50 -55 50
    endloop
  endfacet
  facet normal -0.196116 0 -0.980581
    outer loop
      vertex 50 0 50
      vertex 40 -55 52
      vertex 40 0 52
    endloop
  endfacet
  facet normal -1 0 0
    outer loop
      vertex 50 -55 2.5
      vertex 50 0 50
      vertex 50 0 2.5
    endloop
  endfacet
  facet normal -1 -0 0
    outer loop
      vertex 50 0 50
      vertex 50 -55 2.5
      vertex 50 -55 50
    endloop
  endfacet
  facet normal 0 0 1
    outer loop
      vertex 50 0 2.5
      vertex 33 -27.5 2.5
      vertex 50 -55 2.5
    endloop
  endfacet
  facet normal 0 0 1
    outer loop
      vertex 50 0 2.5
      vertex 32.4271 -25.7366 2.5
      vertex 33 -27.5 2.5
    endloop
  endfacet
  facet normal 0 0 1
    outer loop
      vertex 50 0 2.5
      vertex 30.9271 -24.6468 2.5
      vertex 32.4271 -25.7366 2.5
    endloop
  endfacet
  facet normal 0 0 1
    outer loop
      vertex 50 0 2.5
      vertex 29.0729 -24.6468 2.5
      vertex 30.9271 -24.6468 2.5
    endloop
  endfacet
  facet normal -0 0 1
    outer loop
      vertex 0 0 2.5
      vertex 29.0729 -24.6468 2.5
      vertex 50 0 2.5
    endloop
  endfacet
  facet normal 0 0 1
    outer loop
      vertex 27.5729 -25.7366 2.5
      vertex 13 -27.5 2.5
      vertex 27 -27.5 2.5
    endloop
  endfacet
  facet normal 0 -0 1
    outer loop
      vertex 10.9271 -24.6468 2.5
      vertex 29.0729 -24.6468 2.5
      vertex 0 0 2.5
    endloop
  endfacet
  facet normal 0 0 1
    outer loop
      vertex 27.5729 -25.7366 2.5
      vertex 12.4271 -25.7366 2.5
      vertex 13 -27.5 2.5
    endloop
  endfacet
  facet normal 0 0 1
    outer loop
      vertex 27.5729 -25.7366 2.5
      vertex 10.9271 -24.6468 2.5
      vertex 12.4271 -25.7366 2.5
    endloop
  endfacet
  facet normal 0 0 1
    outer loop
      vertex 29.0729 -24.6468 2.5
      vertex 10.9271 -24.6468 2.5
      vertex 27.5729 -25.7366 2.5
    endloop
  endfacet
  facet normal 0 0 1
    outer loop
      vertex 7.57295 -25.7366 2.5
      vertex 0 0 2.5
      vertex 7 -27.5 2.5
    endloop
  endfacet
  facet normal 0 0 1
    outer loop
      vertex 9.07295 -24.6468 2.5
      vertex 0 0 2.5
      vertex 7.57295 -25.7366 2.5
    endloop
  endfacet
  facet normal 0 0 1
    outer loop
      vertex 10.9271 -24.6468 2.5
      vertex 0 0 2.5
      vertex 9.07295 -24.6468 2.5
    endloop
  endfacet
  facet normal -0 0 1
    outer loop
      vertex 32.4271 -29.2634 2.5
      vertex 50 -55 2.5
      vertex 33 -27.5 2.5
    endloop
  endfacet
  facet normal -0 0 1
    outer loop
      vertex 30.9271 -30.3532 2.5
      vertex 50 -55 2.5
      vertex 32.4271 -29.2634 2.5
    endloop
  endfacet
  facet normal -0 0 1
    outer loop
      vertex 29.0729 -30.3532 2.5
      vertex 50 -55 2.5
      vertex 30.9271 -30.3532 2.5
    endloop
  endfacet
  facet normal 0 0 1
    outer loop
      vertex 10.9271 -30.3532 2.5
      vertex 29.0729 -30.3532 2.5
      vertex 27.5729 -29.2634 2.5
    endloop
  endfacet
  facet normal -0 0 1
    outer loop
      vertex 13 -27.5 2.5
      vertex 27.5729 -29.2634 2.5
      vertex 27 -27.5 2.5
    endloop
  endfacet
  facet normal 0 0 1
    outer loop
      vertex 12.4271 -29.2634 2.5
      vertex 27.5729 -29.2634 2.5
      vertex 13 -27.5 2.5
    endloop
  endfacet
  facet normal 0 0 1
    outer loop
      vertex 10.9271 -30.3532 2.5
      vertex 27.5729 -29.2634 2.5
      vertex 12.4271 -29.2634 2.5
    endloop
  endfacet
  facet normal 0 0 1
    outer loop
      vertex 29.0729 -30.3532 2.5
      vertex 10.9271 -30.3532 2.5
      vertex 0 -55 2.5
    endloop
  endfacet
  facet normal 0 0 1
    outer loop
      vertex 0 -55 2.5
      vertex 10.9271 -30.3532 2.5
      vertex 9.07295 -30.3532 2.5
    endloop
  endfacet
  facet normal 0 0 1
    outer loop
      vertex 29.0729 -30.3532 2.5
      vertex 0 -55 2.5
      vertex 50 -55 2.5
    endloop
  endfacet
  facet normal 0 0 1
    outer loop
      vertex 7.57295 -29.2634 2.5
      vertex 0 -55 2.5
      vertex 9.07295 -30.3532 2.5
    endloop
  endfacet
  facet normal 0 0 1
    outer loop
      vertex 7 -27.5 2.5
      vertex 0 -55 2.5
      vertex 7.57295 -29.2634 2.5
    endloop
  endfacet
  facet normal 0 0 1
    outer loop
      vertex 0 -55 2.5
      vertex 7 -27.5 2.5
      vertex 0 0 2.5
    endloop
  endfacet
  facet normal -1 0 0
    outer loop
      vertex 0 -55 0
      vertex 0 0 2.5
      vertex 0 0 0
    endloop
  endfacet
  facet normal -1 -0 0
    outer loop
      vertex 0 0 2.5
      vertex 0 -55 0
      vertex 0 -55 2.5
    endloop
  endfacet
  facet normal 0 0 -1
    outer loop
      vertex 52 -55 0
      vertex 33 -27.5 0
      vertex 52 0 0
    endloop
  endfacet
  facet normal 0 0 -1
    outer loop
      vertex 52 -55 0
      vertex 32.4271 -29.2634 0
      vertex 33 -27.5 0
    endloop
  endfacet
  facet normal 0 0 -1
    outer loop
      vertex 52 -55 0
      vertex 30.9271 -30.3532 0
      vertex 32.4271 -29.2634 0
    endloop
  endfacet
  facet normal 0 0 -1
    outer loop
      vertex 52 -55 0
      vertex 29.0729 -30.3532 0
      vertex 30.9271 -30.3532 0
    endloop
  endfacet
  facet normal 0 0 -1
    outer loop
      vertex 0 -55 0
      vertex 29.0729 -30.3532 0
      vertex 52 -55 0
    endloop
  endfacet
  facet normal 0 0 -1
    outer loop
      vertex 27.5729 -29.2634 0
      vertex 13 -27.5 0
      vertex 27 -27.5 0
    endloop
  endfacet
  facet normal 0 -0 -1
    outer loop
      vertex 10.9271 -30.3532 0
      vertex 29.0729 -30.3532 0
      vertex 0 -55 0
    endloop
  endfacet
  facet normal 0 0 -1
    outer loop
      vertex 27.5729 -29.2634 0
      vertex 12.4271 -29.2634 0
      vertex 13 -27.5 0
    endloop
  endfacet
  facet normal -0 0 -1
    outer loop
      vertex 27.5729 -29.2634 0
      vertex 10.9271 -30.3532 0
      vertex 12.4271 -29.2634 0
    endloop
  endfacet
  facet normal 0 0 -1
    outer loop
      vertex 29.0729 -30.3532 0
      vertex 10.9271 -30.3532 0
      vertex 27.5729 -29.2634 0
    endloop
  endfacet
  facet normal -0 0 -1
    outer loop
      vertex 7.57295 -29.2634 0
      vertex 0 -55 0
      vertex 7 -27.5 0
    endloop
  endfacet
  facet normal -0 0 -1
    outer loop
      vertex 9.07295 -30.3532 0
      vertex 0 -55 0
      vertex 7.57295 -29.2634 0
    endloop
  endfacet
  facet normal -0 0 -1
    outer loop
      vertex 10.9271 -30.3532 0
      vertex 0 -55 0
      vertex 9.07295 -30.3532 0
    endloop
  endfacet
  facet normal 0 0 -1
    outer loop
      vertex 32.4271 -25.7366 0
      vertex 52 0 0
      vertex 33 -27.5 0
    endloop
  endfacet
  facet normal 0 0 -1
    outer loop
      vertex 30.9271 -24.6468 0
      vertex 52 0 0
      vertex 32.4271 -25.7366 0
    endloop
  endfacet
  facet normal 0 0 -1
    outer loop
      vertex 29.0729 -24.6468 0
      vertex 52 0 0
      vertex 30.9271 -24.6468 0
    endloop
  endfacet
  facet normal 0 0 -1
    outer loop
      vertex 10.9271 -24.6468 0
      vertex 29.0729 -24.6468 0
      vertex 27.5729 -25.7366 0
    endloop
  endfacet
  facet normal 0 0 -1
    outer loop
      vertex 13 -27.5 0
      vertex 27.5729 -25.7366 0
      vertex 27 -27.5 0
    endloop
  endfacet
  facet normal 0 0 -1
    outer loop
      vertex 12.4271 -25.7366 0
      vertex 27.5729 -25.7366 0
      vertex 13 -27.5 0
    endloop
  endfacet
  facet normal 0 0 -1
    outer loop
      vertex 10.9271 -24.6468 0
      vertex 27.5729 -25.7366 0
      vertex 12.4271 -25.7366 0
    endloop
  endfacet
  facet normal 0 0 -1
    outer loop
      vertex 29.0729 -24.6468 0
      vertex 10.9271 -24.6468 0
      vertex 0 0 0
    endloop
  endfacet
  facet normal 0 0 -1
    outer loop
      vertex 0 0 0
      vertex 10.9271 -24.6468 0
      vertex 9.07295 -24.6468 0
    endloop
  endfacet
  facet normal 0 0 -1
    outer loop
      vertex 29.0729 -24.6468 0
      vertex 0 0 0
      vertex 52 0 0
    endloop
  endfacet
  facet normal 0 0 -1
    outer loop
      vertex 7.57295 -25.7366 0
      vertex 0 0 0
      vertex 9.07295 -24.6468 0
    endloop
  endfacet
  facet normal 0 0 -1
    outer loop
      vertex 7 -27.5 0
      vertex 0 0 0
      vertex 7.57295 -25.7366 0
    endloop
  endfacet
  facet normal 0 0 -1
    outer loop
      vertex 0 0 0
      vertex 7 -27.5 0
      vertex 0 -55 0
    endloop
  endfacet
  facet normal 1 -0 0
    outer loop
      vertex 52 -55 51
      vertex 52 0 0
      vertex 52 0 51
    endloop
  endfacet
  facet normal 1 0 0
    outer loop
      vertex 52 0 0
      vertex 52 -55 51
      vertex 52 -55 0
    endloop
  endfacet
  facet normal -0.951067 -0.308986 0
    outer loop
      vertex 13 -27.5 0
      vertex 12.4271 -25.7366 2.5
      vertex 12.4271 -25.7366 0
    endloop
  endfacet
  facet normal -0.951067 -0.308986 0
    outer loop
      vertex 12.4271 -25.7366 2.5
      vertex 13 -27.5 0
      vertex 13 -27.5 2.5
    endloop
  endfacet
  facet normal 0 -1 0
    outer loop
      vertex 9.07295 -24.6468 0
      vertex 10.9271 -24.6468 2.5
      vertex 9.07295 -24.6468 2.5
    endloop
  endfacet
  facet normal 0 -1 -0
    outer loop
      vertex 10.9271 -24.6468 2.5
      vertex 9.07295 -24.6468 0
      vertex 10.9271 -24.6468 0
    endloop
  endfacet
  facet normal -0.58778 -0.809021 0
    outer loop
      vertex 10.9271 -24.6468 0
      vertex 12.4271 -25.7366 2.5
      vertex 10.9271 -24.6468 2.5
    endloop
  endfacet
  facet normal -0.58778 -0.809021 -0
    outer loop
      vertex 12.4271 -25.7366 2.5
      vertex 10.9271 -24.6468 0
      vertex 12.4271 -25.7366 0
    endloop
  endfacet
  facet normal 0.951059 0.30901 0
    outer loop
      vertex 7.57295 -29.2634 2.5
      vertex 7 -27.5 0
      vertex 7 -27.5 2.5
    endloop
  endfacet
  facet normal 0.951059 0.30901 0
    outer loop
      vertex 7 -27.5 0
      vertex 7.57295 -29.2634 2.5
      vertex 7.57295 -29.2634 0
    endloop
  endfacet
  facet normal 0.58778 -0.809021 0
    outer loop
      vertex 7.57295 -25.7366 0
      vertex 9.07295 -24.6468 2.5
      vertex 7.57295 -25.7366 2.5
    endloop
  endfacet
  facet normal 0.58778 -0.809021 0
    outer loop
      vertex 9.07295 -24.6468 2.5
      vertex 7.57295 -25.7366 0
      vertex 9.07295 -24.6468 0
    endloop
  endfacet
  facet normal -0.951067 0.308986 0
    outer loop
      vertex 12.4271 -29.2634 0
      vertex 13 -27.5 2.5
      vertex 13 -27.5 0
    endloop
  endfacet
  facet normal -0.951067 0.308986 0
    outer loop
      vertex 13 -27.5 2.5
      vertex 12.4271 -29.2634 0
      vertex 12.4271 -29.2634 2.5
    endloop
  endfacet
  facet normal -0.58778 0.809021 0
    outer loop
      vertex 12.4271 -29.2634 0
      vertex 10.9271 -30.3532 2.5
      vertex 12.4271 -29.2634 2.5
    endloop
  endfacet
  facet normal -0.58778 0.809021 0
    outer loop
      vertex 10.9271 -30.3532 2.5
      vertex 12.4271 -29.2634 0
      vertex 10.9271 -30.3532 0
    endloop
  endfacet
  facet normal 0.58778 0.809021 -0
    outer loop
      vertex 9.07295 -30.3532 0
      vertex 7.57295 -29.2634 2.5
      vertex 9.07295 -30.3532 2.5
    endloop
  endfacet
  facet normal 0.58778 0.809021 0
    outer loop
      vertex 7.57295 -29.2634 2.5
      vertex 9.07295 -30.3532 0
      vertex 7.57295 -29.2634 0
    endloop
  endfacet
  facet normal 0.951059 -0.30901 0
    outer loop
      vertex 7 -27.5 2.5
      vertex 7.57295 -25.7366 0
      vertex 7.57295 -25.7366 2.5
    endloop
  endfacet
  facet normal 0.951059 -0.30901 0
    outer loop
      vertex 7.57295 -25.7366 0
      vertex 7 -27.5 2.5
      vertex 7 -27.5 0
    endloop
  endfacet
  facet normal 0 1 -0
    outer loop
      vertex 10.9271 -30.3532 0
      vertex 9.07295 -30.3532 2.5
      vertex 10.9271 -30.3532 2.5
    endloop
  endfacet
  facet normal 0 1 0
    outer loop
      vertex 9.07295 -30.3532 2.5
      vertex 10.9271 -30.3532 0
      vertex 9.07295 -30.3532 0
    endloop
  endfacet
  facet normal -0.951067 -0.308986 0
    outer loop
      vertex 33 -27.5 0
      vertex 32.4271 -25.7366 2.5
      vertex 32.4271 -25.7366 0
    endloop
  endfacet
  facet normal -0.951067 -0.308986 0
    outer loop
      vertex 32.4271 -25.7366 2.5
      vertex 33 -27.5 0
      vertex 33 -27.5 2.5
    endloop
  endfacet
  facet normal 0 -1 0
    outer loop
      vertex 29.0729 -24.6468 0
      vertex 30.9271 -24.6468 2.5
      vertex 29.0729 -24.6468 2.5
    endloop
  endfacet
  facet normal 0 -1 -0
    outer loop
      vertex 30.9271 -24.6468 2.5
      vertex 29.0729 -24.6468 0
      vertex 30.9271 -24.6468 0
    endloop
  endfacet
  facet normal -0.58778 -0.809021 0
    outer loop
      vertex 30.9271 -24.6468 0
      vertex 32.4271 -25.7366 2.5
      vertex 30.9271 -24.6468 2.5
    endloop
  endfacet
  facet normal -0.58778 -0.809021 -0
    outer loop
      vertex 32.4271 -25.7366 2.5
      vertex 30.9271 -24.6468 0
      vertex 32.4271 -25.7366 0
    endloop
  endfacet
  facet normal 0.58778 -0.809021 0
    outer loop
      vertex 27.5729 -25.7366 0
      vertex 29.0729 -24.6468 2.5
      vertex 27.5729 -25.7366 2.5
    endloop
  endfacet
  facet normal 0.58778 -0.809021 0
    outer loop
      vertex 29.0729 -24.6468 2.5
      vertex 27.5729 -25.7366 0
      vertex 29.0729 -24.6468 0
    endloop
  endfacet
  facet normal -0.58778 0.809021 0
    outer loop
      vertex 32.4271 -29.2634 0
      vertex 30.9271 -30.3532 2.5
      vertex 32.4271 -29.2634 2.5
    endloop
  endfacet
  facet normal -0.58778 0.809021 0
    outer loop
      vertex 30.9271 -30.3532 2.5
      vertex 32.4271 -29.2634 0
      vertex 30.9271 -30.3532 0
    endloop
  endfacet
  facet normal 0.58778 0.809021 -0
    outer loop
      vertex 29.0729 -30.3532 0
      vertex 27.5729 -29.2634 2.5
      vertex 29.0729 -30.3532 2.5
    endloop
  endfacet
  facet normal 0.58778 0.809021 0
    outer loop
      vertex 27.5729 -29.2634 2.5
      vertex 29.0729 -30.3532 0
      vertex 27.5729 -29.2634 0
    endloop
  endfacet
  facet normal 0.951067 -0.308986 0
    outer loop
      vertex 27 -27.5 2.5
      vertex 27.5729 -25.7366 0
      vertex 27.5729 -25.7366 2.5
    endloop
  endfacet
  facet normal 0.951067 -0.308986 0
    outer loop
      vertex 27.5729 -25.7366 0
      vertex 27 -27.5 2.5
      vertex 27 -27.5 0
    endloop
  endfacet
  facet normal -0.951067 0.308986 0
    outer loop
      vertex 32.4271 -29.2634 0
      vertex 33 -27.5 2.5
      vertex 33 -27.5 0
    endloop
  endfacet
  facet normal -0.951067 0.308986 0
    outer loop
      vertex 33 -27.5 2.5
      vertex 32.4271 -29.2634 0
      vertex 32.4271 -29.2634 2.5
    endloop
  endfacet
  facet normal 0 1 -0
    outer loop
      vertex 30.9271 -30.3532 0
      vertex 29.0729 -30.3532 2.5
      vertex 30.9271 -30.3532 2.5
    endloop
  endfacet
  facet normal 0 1 0
    outer loop
      vertex 29.0729 -30.3532 2.5
      vertex 30.9271 -30.3532 0
      vertex 29.0729 -30.3532 0
    endloop
  endfacet
  facet normal 0.951067 0.308986 0
    outer loop
      vertex 27.5729 -29.2634 2.5
      vertex 27 -27.5 0
      vertex 27 -27.5 2.5
    endloop
  endfacet
  facet normal 0.951067 0.308986 0
    outer loop
      vertex 27 -27.5 0
      vertex 27.5729 -29.2634 2.5
      vertex 27.5729 -29.2634 0
    endloop
  endfacet
endsolid OpenSCAD_Model
