solid OpenSCAD_Model
  facet normal -1 0 0
    outer loop
      vertex 0 -55 0
      vertex 0 -55 2.5
      vertex 0 0 0
    endloop
  endfacet
  facet normal 0 0 -1
    outer loop
      vertex 0 -55 0
      vertex 7.572949016875158 -29.26335575687742 0
      vertex 9.072949016875159 -30.35316954888546 0
    endloop
  endfacet
  facet normal 0 0 1
    outer loop
      vertex 0 -55 2.5
      vertex 9.072949016875159 -30.35316954888546 2.5
      vertex 7.572949016875158 -29.26335575687742 2.5
    endloop
  endfacet
  facet normal 0 0 -1
    outer loop
      vertex 0 -55 0
      vertex 9.072949016875159 -30.35316954888546 0
      vertex 10.927050983124841 -30.35316954888546 0
    endloop
  endfacet
  facet normal 0 0 1
    outer loop
      vertex 0 -55 2.5
      vertex 10.927050983124841 -30.35316954888546 2.5
      vertex 9.072949016875159 -30.35316954888546 2.5
    endloop
  endfacet
  facet normal 0 0 -1
    outer loop
      vertex 0 -55 0
      vertex 7 -27.5 0
      vertex 7.572949016875158 -29.26335575687742 0
    endloop
  endfacet
  facet normal 0 0 1
    outer loop
      vertex 0 -55 2.5
      vertex 7.572949016875158 -29.26335575687742 2.5
      vertex 7 -27.5 2.5
    endloop
  endfacet
  facet normal 0 0 1
    outer loop
      vertex 0 -55 2.5
      vertex 12.427050983124843 -29.26335575687742 2.5
      vertex 10.927050983124841 -30.35316954888546 2.5
    endloop
  endfacet
  facet normal 0 0 -1
    outer loop
      vertex 0 -55 0
      vertex 10.927050983124841 -30.35316954888546 0
      vertex 27 -27.5 0
    endloop
  endfacet
  facet normal 0 -1 0
    outer loop
      vertex 0 -55 0
      vertex 50 -55 2.5
      vertex 0 -55 2.5
    endloop
  endfacet
  facet normal 0 0 1
    outer loop
      vertex 0 -55 2.5
      vertex 50 -55 2.5
      vertex 12.427050983124843 -29.26335575687742 2.5
    endloop
  endfacet
  facet normal 0 0 -1
    outer loop
      vertex 0 -55 0
      vertex 27.572949016875157 -29.26335575687742 0
      vertex 29.072949016875157 -30.35316954888546 0
    endloop
  endfacet
  facet normal 0 0 -1
    outer loop
      vertex 0 -55 0
      vertex 27 -27.5 0
      vertex 27.572949016875157 -29.26335575687742 0
    endloop
  endfacet
  facet normal 0 0 -1
    outer loop
      vertex 0 -55 0
      vertex 29.072949016875157 -30.35316954888546 0
      vertex 30.927050983124843 -30.35316954888546 0
    endloop
  endfacet
  facet normal 0 0 -1
    outer loop
      vertex 0 -55 0
      vertex 30.927050983124843 -30.35316954888546 0
      vertex 32.42705098312484 -29.26335575687742 0
    endloop
  endfacet
  facet normal 0 0 -1
    outer loop
      vertex 27 -27.5 0
      vertex 10.927050983124841 -30.35316954888546 0
      vertex 12.427050983124843 -29.26335575687742 0
    endloop
  endfacet
  facet normal 0 0 -1
    outer loop
      vertex 27 -27.5 0
      vertex 12.427050983124843 -29.26335575687742 0
      vertex 13 -27.5 0
    endloop
  endfacet
  facet normal 0 0 1
    outer loop
      vertex 50 -55 2.5
      vertex 13 -27.5 2.5
      vertex 12.427050983124843 -29.26335575687742 2.5
    endloop
  endfacet
  facet normal 0 0 1
    outer loop
      vertex 50 -55 2.5
      vertex 12.427050983124843 -25.73664424312258 2.5
      vertex 13 -27.5 2.5
    endloop
  endfacet
  facet normal 0 0 1
    outer loop
      vertex 0 0 2.5
      vertex 50 -55 2.5
      vertex 27.572949016875157 -29.26335575687742 2.5
    endloop
  endfacet
  facet normal 0 0 -1
    outer loop
      vertex 0 -55 0
      vertex 32.42705098312484 -29.26335575687742 0
      vertex 52 -17.5 0
    endloop
  endfacet
  facet normal 0 0 -1
    outer loop
      vertex 0 -55 0
      vertex 0 0 0
      vertex 7 -27.5 0
    endloop
  endfacet
  facet normal 0 0 1
    outer loop
      vertex 0 -55 2.5
      vertex 7 -27.5 2.5
      vertex 0 0 2.5
    endloop
  endfacet
  facet normal -1 0 0
    outer loop
      vertex 0 -55 2.5
      vertex 0 0 2.5
      vertex 0 0 0
    endloop
  endfacet
  facet normal 0 0 -1
    outer loop
      vertex 0 0 0
      vertex 7.572949016875158 -25.73664424312258 0
      vertex 7 -27.5 0
    endloop
  endfacet
  facet normal 0 0 1
    outer loop
      vertex 0 0 2.5
      vertex 7 -27.5 2.5
      vertex 7.572949016875158 -25.73664424312258 2.5
    endloop
  endfacet
  facet normal 0 0 -1
    outer loop
      vertex 0 0 0
      vertex 9.072949016875159 -24.64683045111454 0
      vertex 7.572949016875158 -25.73664424312258 0
    endloop
  endfacet
  facet normal 0 0 1
    outer loop
      vertex 0 0 2.5
      vertex 7.572949016875158 -25.73664424312258 2.5
      vertex 9.072949016875159 -24.64683045111454 2.5
    endloop
  endfacet
  facet normal 0 0 -1
    outer loop
      vertex 0 0 0
      vertex 10.927050983124841 -24.64683045111454 0
      vertex 9.072949016875159 -24.64683045111454 0
    endloop
  endfacet
  facet normal 0 0 1
    outer loop
      vertex 0 0 2.5
      vertex 9.072949016875159 -24.64683045111454 2.5
      vertex 10.927050983124841 -24.64683045111454 2.5
    endloop
  endfacet
  facet normal 0 0 1
    outer loop
      vertex 0 0 2.5
      vertex 10.927050983124841 -24.64683045111454 2.5
      vertex 12.427050983124843 -25.73664424312258 2.5
    endloop
  endfacet
  facet normal 0 0 -1
    outer loop
      vertex 0 0 0
      vertex 27.572949016875157 -25.73664424312258 0
      vertex 10.927050983124841 -24.64683045111454 0
    endloop
  endfacet
  facet normal 0 0 -1
    outer loop
      vertex 27.572949016875157 -25.73664424312258 0
      vertex 12.427050983124843 -25.73664424312258 0
      vertex 10.927050983124841 -24.64683045111454 0
    endloop
  endfacet
  facet normal 0 0 -1
    outer loop
      vertex 27 -27.5 0
      vertex 13 -27.5 0
      vertex 12.427050983124843 -25.73664424312258 0
    endloop
  endfacet
  facet normal 0 0 1
    outer loop
      vertex 0 0 2.5
      vertex 12.427050983124843 -25.73664424312258 2.5
      vertex 50 -55 2.5
    endloop
  endfacet
  facet normal 0 0 -1
    outer loop
      vertex 27 -27.5 0
      vertex 12.427050983124843 -25.73664424312258 0
      vertex 27.572949016875157 -25.73664424312258 0
    endloop
  endfacet
  facet normal 0 0 1
    outer loop
      vertex 0 0 2.5
      vertex 27.572949016875157 -29.26335575687742 2.5
      vertex 27 -27.5 2.5
    endloop
  endfacet
  facet normal 0 0 1
    outer loop
      vertex 0 0 2.5
      vertex 27 -27.5 2.5
      vertex 27.572949016875157 -25.73664424312258 2.5
    endloop
  endfacet
  facet normal 0 0 1
    outer loop
      vertex 0 0 2.5
      vertex 27.572949016875157 -25.73664424312258 2.5
      vertex 29.072949016875157 -24.64683045111454 2.5
    endloop
  endfacet
  facet normal 0 0 1
    outer loop
      vertex 0 0 2.5
      vertex 29.072949016875157 -24.64683045111454 2.5
      vertex 30.927050983124843 -24.64683045111454 2.5
    endloop
  endfacet
  facet normal 0 1 0
    outer loop
      vertex 0 0 0
      vertex 0 0 2.5
      vertex 50 0 2.5
    endloop
  endfacet
  facet normal 0 0 -1
    outer loop
      vertex 0 0 0
      vertex 52 0 0
      vertex 27.572949016875157 -25.73664424312258 0
    endloop
  endfacet
  facet normal 0 0 1
    outer loop
      vertex 0 0 2.5
      vertex 30.927050983124843 -24.64683045111454 2.5
      vertex 50 0 2.5
    endloop
  endfacet
  facet normal 0 -1 0
    outer loop
      vertex 0 -55 0
      vertex 52 -55 0
      vertex 50 -55 2.5
    endloop
  endfacet
  facet normal 0 0 -1
    outer loop
      vertex 0 -55 0
      vertex 52 -37.5 0
      vertex 52 -55 0
    endloop
  endfacet
  facet normal 0 0 1
    outer loop
      vertex 50 -55 2.5
      vertex 29.072949016875157 -30.35316954888546 2.5
      vertex 27.572949016875157 -29.26335575687742 2.5
    endloop
  endfacet
  facet normal 0 0 1
    outer loop
      vertex 50 -55 2.5
      vertex 30.927050983124843 -30.35316954888546 2.5
      vertex 29.072949016875157 -30.35316954888546 2.5
    endloop
  endfacet
  facet normal 0 0 1
    outer loop
      vertex 50 -55 2.5
      vertex 32.42705098312484 -29.26335575687742 2.5
      vertex 30.927050983124843 -30.35316954888546 2.5
    endloop
  endfacet
  facet normal 0 0 -1
    outer loop
      vertex 0 -55 0
      vertex 52 -17.5 0
      vertex 52 -37.5 0
    endloop
  endfacet
  facet normal 0 0 1
    outer loop
      vertex 50 -55 2.5
      vertex 33 -27.5 2.5
      vertex 32.42705098312484 -29.26335575687742 2.5
    endloop
  endfacet
  facet normal 1 0 0
    outer loop
      vertex 52 -55 0
      vertex 52 -37.5 0
      vertex 52 -37.5 15
    endloop
  endfacet
  facet normal 0 -1 0
    outer loop
      vertex 50 -55 2.5
      vertex 52 -55 0
      vertex 52 -55 51
    endloop
  endfacet
  facet normal -1 0 0
    outer loop
      vertex 50 -55 2.5
      vertex 50 -55 50
      vertex 50 0 2.5
    endloop
  endfacet
  facet normal 1 0 0
    outer loop
      vertex 52 -55 0
      vertex 52 -37.5 15
      vertex 52 0 51
    endloop
  endfacet
  facet normal 0 -1 0
    outer loop
      vertex 40 -55 52
      vertex 40.5 -55 53.5
      vertex 39.5 -55 53
    endloop
  endfacet
  facet normal 0 -1 0
    outer loop
      vertex 40 -55 52
      vertex 47 -55 53
      vertex 40.5 -55 53.5
    endloop
  endfacet
  facet normal 0 -1 0
    outer loop
      vertex 40 -55 52
      vertex 50 -55 50
      vertex 47 -55 53
    endloop
  endfacet
  facet normal -0.894427190999916 0 -0.447213595499958
    outer loop
      vertex 40 -55 52
      vertex 39.5 -55 53
      vertex 40 0 52
    endloop
  endfacet
  facet normal -0.447213595499958 0 0.894427190999916
    outer loop
      vertex 39.5 -55 53
      vertex 40.5 -55 53.5
      vertex 39.5 0 53
    endloop
  endfacet
  facet normal 0.07669649888473705 0 0.9970544855015816
    outer loop
      vertex 40.5 -55 53.5
      vertex 47 -55 53
      vertex 40.5 0 53.5
    endloop
  endfacet
  facet normal 0 -1 0
    outer loop
      vertex 50 -55 2.5
      vertex 52 -55 51
      vertex 50 -55 50
    endloop
  endfacet
  facet normal 0 -1 0
    outer loop
      vertex 47 -55 53
      vertex 50 -55 50
      vertex 51 -55 52
    endloop
  endfacet
  facet normal 0 -1 0
    outer loop
      vertex 50 -55 50
      vertex 52 -55 51
      vertex 51 -55 52
    endloop
  endfacet
  facet normal 1 0 0
    outer loop
      vertex 52 -55 0
      vertex 52 0 51
      vertex 52 -55 51
    endloop
  endfacet
  facet normal -0.19611613513818402 0 -0.9805806756909201
    outer loop
      vertex 40 -55 52
      vertex 50 0 50
      vertex 50 -55 50
    endloop
  endfacet
  facet normal 0.24253562503633297 0 0.9701425001453319
    outer loop
      vertex 47 -55 53
      vertex 51 -55 52
      vertex 47 0 53
    endloop
  endfacet
  facet normal 0.7071067811865475 0 0.7071067811865475
    outer loop
      vertex 51 -55 52
      vertex 52 -55 51
      vertex 51 0 52
    endloop
  endfacet
  facet normal 0 0 -1
    outer loop
      vertex 52 -17.5 0
      vertex 30.927050983124843 -24.64683045111454 0
      vertex 29.072949016875157 -24.64683045111454 0
    endloop
  endfacet
  facet normal 0 0 -1
    outer loop
      vertex 52 0 0
      vertex 29.072949016875157 -24.64683045111454 0
      vertex 27.572949016875157 -25.73664424312258 0
    endloop
  endfacet
  facet normal 0 0 1
    outer loop
      vertex 50 0 2.5
      vertex 30.927050983124843 -24.64683045111454 2.5
      vertex 32.42705098312484 -25.73664424312258 2.5
    endloop
  endfacet
  facet normal 0 0 -1
    outer loop
      vertex 52 -17.5 0
      vertex 32.42705098312484 -29.26335575687742 0
      vertex 33 -27.5 0
    endloop
  endfacet
  facet normal 0 0 -1
    outer loop
      vertex 52 -17.5 0
      vertex 32.42705098312484 -25.73664424312258 0
      vertex 30.927050983124843 -24.64683045111454 0
    endloop
  endfacet
  facet normal 0 0 -1
    outer loop
      vertex 52 -17.5 0
      vertex 33 -27.5 0
      vertex 32.42705098312484 -25.73664424312258 0
    endloop
  endfacet
  facet normal 0 0 1
    outer loop
      vertex 50 -55 2.5
      vertex 50 0 2.5
      vertex 33 -27.5 2.5
    endloop
  endfacet
  facet normal 0 0 1
    outer loop
      vertex 50 0 2.5
      vertex 32.42705098312484 -25.73664424312258 2.5
      vertex 33 -27.5 2.5
    endloop
  endfacet
  facet normal 0 0 -1
    outer loop
      vertex 52 -17.5 0
      vertex 29.072949016875157 -24.64683045111454 0
      vertex 52 0 0
    endloop
  endfacet
  facet normal 0 1 0
    outer loop
      vertex 0 0 0
      vertex 50 0 2.5
      vertex 52 0 0
    endloop
  endfacet
  facet normal 1 0 0
    outer loop
      vertex 52 -17.5 0
      vertex 52 0 0
      vertex 52 -17.5 15
    endloop
  endfacet
  facet normal 0 1 0
    outer loop
      vertex 50 0 2.5
      vertex 52 0 51
      vertex 52 0 0
    endloop
  endfacet
  facet normal 1 0 0
    outer loop
      vertex 52 -17.5 15
      vertex 52 0 0
      vertex 52 0 51
    endloop
  endfacet
  facet normal -0.894427190999916 0 -0.447213595499958
    outer loop
      vertex 39.5 -55 53
      vertex 39.5 0 53
      vertex 40 0 52
    endloop
  endfacet
  facet normal -0.447213595499958 0 0.894427190999916
    outer loop
      vertex 40.5 -55 53.5
      vertex 40.5 0 53.5
      vertex 39.5 0 53
    endloop
  endfacet
  facet normal -0.19611613513818402 0 -0.9805806756909201
    outer loop
      vertex 40 -55 52
      vertex 40 0 52
      vertex 50 0 50
    endloop
  endfacet
  facet normal 0.07669649888473705 0 0.9970544855015816
    outer loop
      vertex 47 -55 53
      vertex 47 0 53
      vertex 40.5 0 53.5
    endloop
  endfacet
  facet normal 0 1 0
    outer loop
      vertex 40 0 52
      vertex 39.5 0 53
      vertex 40.5 0 53.5
    endloop
  endfacet
  facet normal 0 1 0
    outer loop
      vertex 40 0 52
      vertex 40.5 0 53.5
      vertex 47 0 53
    endloop
  endfacet
  facet normal 0 1 0
    outer loop
      vertex 40 0 52
      vertex 47 0 53
      vertex 50 0 50
    endloop
  endfacet
  facet normal 1 0 0
    outer loop
      vertex 52 -37.5 15
      vertex 52 -17.5 15
      vertex 52 0 51
    endloop
  endfacet
  facet normal -1 0 0
    outer loop
      vertex 50 -55 50
      vertex 50 0 50
      vertex 50 0 2.5
    endloop
  endfacet
  facet normal 0.24253562503633297 0 0.9701425001453319
    outer loop
      vertex 51 -55 52
      vertex 51 0 52
      vertex 47 0 53
    endloop
  endfacet
  facet normal 0.7071067811865475 0 0.7071067811865475
    outer loop
      vertex 52 -55 51
      vertex 52 0 51
      vertex 51 0 52
    endloop
  endfacet
  facet normal 0 1 0
    outer loop
      vertex 50 0 2.5
      vertex 50 0 50
      vertex 52 0 51
    endloop
  endfacet
  facet normal 0 1 0
    outer loop
      vertex 47 0 53
      vertex 51 0 52
      vertex 50 0 50
    endloop
  endfacet
  facet normal 0 1 0
    outer loop
      vertex 50 0 50
      vertex 51 0 52
      vertex 52 0 51
    endloop
  endfacet
  facet normal 0 0 -1
    outer loop
      vertex 52 -37.5 0
      vertex 52 -17.5 0
      vertex 55 -33.5 0
    endloop
  endfacet
  facet normal 0 0 -1
    outer loop
      vertex 52 -37.5 0
      vertex 55 -33.5 0
      vertex 61 -37.5 0
    endloop
  endfacet
  facet normal 0 -1 0
    outer loop
      vertex 52 -37.5 0
      vertex 61 -37.5 0
      vertex 52 -37.5 15
    endloop
  endfacet
  facet normal 0 0 -1
    outer loop
      vertex 61 -37.5 0
      vertex 55 -33.5 0
      vertex 59.7 -33.5 0
    endloop
  endfacet
  facet normal 0 -1 0
    outer loop
      vertex 61 -37.5 0
      vertex 61 -37.5 15
      vertex 52 -37.5 15
    endloop
  endfacet
  facet normal 0 0 -1
    outer loop
      vertex 61 -37.5 0
      vertex 59.7 -33.5 0
      vertex 59.7 -21.2 0
    endloop
  endfacet
  facet normal 1 0 0
    outer loop
      vertex 61 -37.5 0
      vertex 61 -17.5 0
      vertex 61 -37.5 15
    endloop
  endfacet
  facet normal 0 0 1
    outer loop
      vertex 52 -37.5 15
      vertex 61 -37.5 15
      vertex 55 -33.5 15
    endloop
  endfacet
  facet normal 0 0 1
    outer loop
      vertex 61 -37.5 15
      vertex 59.7 -33.5 15
      vertex 55 -33.5 15
    endloop
  endfacet
  facet normal 0 0 1
    outer loop
      vertex 52 -37.5 15
      vertex 55 -33.5 15
      vertex 55 -21.2 15
    endloop
  endfacet
  facet normal 0 0 1
    outer loop
      vertex 61 -37.5 15
      vertex 61 -17.5 15
      vertex 59.7 -33.5 15
    endloop
  endfacet
  facet normal 0 0 -1
    outer loop
      vertex 52 -17.5 0
      vertex 55 -21.2 0
      vertex 55 -33.5 0
    endloop
  endfacet
  facet normal 0 0 -1
    outer loop
      vertex 61 -37.5 0
      vertex 59.7 -21.2 0
      vertex 61 -17.5 0
    endloop
  endfacet
  facet normal 1 0 0
    outer loop
      vertex 61 -37.5 15
      vertex 61 -17.5 0
      vertex 61 -17.5 15
    endloop
  endfacet
  facet normal 0 0 -1
    outer loop
      vertex 52 -17.5 0
      vertex 61 -17.5 0
      vertex 55 -21.2 0
    endloop
  endfacet
  facet normal 0 0 -1
    outer loop
      vertex 61 -17.5 0
      vertex 59.7 -21.2 0
      vertex 55 -21.2 0
    endloop
  endfacet
  facet normal 0 1 0
    outer loop
      vertex 52 -17.5 0
      vertex 61 -17.5 15
      vertex 61 -17.5 0
    endloop
  endfacet
  facet normal 0 1 0
    outer loop
      vertex 52 -17.5 0
      vertex 52 -17.5 15
      vertex 61 -17.5 15
    endloop
  endfacet
  facet normal 0 0 1
    outer loop
      vertex 52 -37.5 15
      vertex 55 -21.2 15
      vertex 52 -17.5 15
    endloop
  endfacet
  facet normal 0 0 1
    outer loop
      vertex 61 -17.5 15
      vertex 59.7 -21.2 15
      vertex 59.7 -33.5 15
    endloop
  endfacet
  facet normal 0 0 1
    outer loop
      vertex 52 -17.5 15
      vertex 55 -21.2 15
      vertex 59.7 -21.2 15
    endloop
  endfacet
  facet normal 0 0 1
    outer loop
      vertex 52 -17.5 15
      vertex 59.7 -21.2 15
      vertex 61 -17.5 15
    endloop
  endfacet
  facet normal 0 1 0
    outer loop
      vertex 59.7 -33.5 0
      vertex 55 -33.5 0
      vertex 55 -33.5 15
    endloop
  endfacet
  facet normal -1 0 0
    outer loop
      vertex 59.7 -33.5 0
      vertex 59.7 -33.5 15
      vertex 59.7 -21.2 0
    endloop
  endfacet
  facet normal 1 0 0
    outer loop
      vertex 55 -21.2 15
      vertex 55 -33.5 15
      vertex 55 -33.5 0
    endloop
  endfacet
  facet normal 0 1 0
    outer loop
      vertex 55 -33.5 15
      vertex 59.7 -33.5 15
      vertex 59.7 -33.5 0
    endloop
  endfacet
  facet normal 1 0 0
    outer loop
      vertex 55 -33.5 0
      vertex 55 -21.2 0
      vertex 55 -21.2 15
    endloop
  endfacet
  facet normal 0 -1 0
    outer loop
      vertex 55 -21.2 0
      vertex 59.7 -21.2 0
      vertex 59.7 -21.2 15
    endloop
  endfacet
  facet normal 0 -1 0
    outer loop
      vertex 55 -21.2 0
      vertex 59.7 -21.2 15
      vertex 55 -21.2 15
    endloop
  endfacet
  facet normal -1 0 0
    outer loop
      vertex 59.7 -21.2 15
      vertex 59.7 -21.2 0
      vertex 59.7 -33.5 15
    endloop
  endfacet
  facet normal 0.9510565162951536 0.3090169943749473 0
    outer loop
      vertex 7 -27.5 2.5
      vertex 7.572949016875158 -29.26335575687742 2.5
      vertex 7.572949016875158 -29.26335575687742 0
    endloop
  endfacet
  facet normal 0.9510565162951536 0.3090169943749473 0
    outer loop
      vertex 7 -27.5 2.5
      vertex 7.572949016875158 -29.26335575687742 0
      vertex 7 -27.5 0
    endloop
  endfacet
  facet normal 0.5877852522924727 0.8090169943749477 0
    outer loop
      vertex 9.072949016875159 -30.35316954888546 0
      vertex 7.572949016875158 -29.26335575687742 0
      vertex 7.572949016875158 -29.26335575687742 2.5
    endloop
  endfacet
  facet normal 0.5877852522924727 0.8090169943749477 0
    outer loop
      vertex 9.072949016875159 -30.35316954888546 2.5
      vertex 9.072949016875159 -30.35316954888546 0
      vertex 7.572949016875158 -29.26335575687742 2.5
    endloop
  endfacet
  facet normal 0 1 0
    outer loop
      vertex 9.072949016875159 -30.35316954888546 2.5
      vertex 10.927050983124841 -30.35316954888546 0
      vertex 9.072949016875159 -30.35316954888546 0
    endloop
  endfacet
  facet normal 0 1 0
    outer loop
      vertex 10.927050983124841 -30.35316954888546 2.5
      vertex 10.927050983124841 -30.35316954888546 0
      vertex 9.072949016875159 -30.35316954888546 2.5
    endloop
  endfacet
  facet normal -0.5877852522924725 0.8090169943749479 0
    outer loop
      vertex 10.927050983124841 -30.35316954888546 2.5
      vertex 12.427050983124843 -29.26335575687742 0
      vertex 10.927050983124841 -30.35316954888546 0
    endloop
  endfacet
  facet normal -0.5877852522924725 0.8090169943749479 0
    outer loop
      vertex 12.427050983124843 -29.26335575687742 2.5
      vertex 12.427050983124843 -29.26335575687742 0
      vertex 10.927050983124841 -30.35316954888546 2.5
    endloop
  endfacet
  facet normal -0.9510565162951536 0.30901699437494684 0
    outer loop
      vertex 12.427050983124843 -29.26335575687742 0
      vertex 12.427050983124843 -29.26335575687742 2.5
      vertex 13 -27.5 0
    endloop
  endfacet
  facet normal -0.9510565162951536 0.30901699437494684 0
    outer loop
      vertex 12.427050983124843 -29.26335575687742 2.5
      vertex 13 -27.5 2.5
      vertex 13 -27.5 0
    endloop
  endfacet
  facet normal 0.9510565162951536 -0.3090169943749473 0
    outer loop
      vertex 7.572949016875158 -25.73664424312258 2.5
      vertex 7 -27.5 2.5
      vertex 7 -27.5 0
    endloop
  endfacet
  facet normal 0.9510565162951536 -0.3090169943749473 0
    outer loop
      vertex 7.572949016875158 -25.73664424312258 2.5
      vertex 7 -27.5 0
      vertex 7.572949016875158 -25.73664424312258 0
    endloop
  endfacet
  facet normal 0.5877852522924727 -0.8090169943749477 0
    outer loop
      vertex 9.072949016875159 -24.64683045111454 2.5
      vertex 7.572949016875158 -25.73664424312258 0
      vertex 9.072949016875159 -24.64683045111454 0
    endloop
  endfacet
  facet normal 0.5877852522924727 -0.8090169943749477 0
    outer loop
      vertex 7.572949016875158 -25.73664424312258 2.5
      vertex 7.572949016875158 -25.73664424312258 0
      vertex 9.072949016875159 -24.64683045111454 2.5
    endloop
  endfacet
  facet normal 0 -1 0
    outer loop
      vertex 10.927050983124841 -24.64683045111454 2.5
      vertex 9.072949016875159 -24.64683045111454 0
      vertex 10.927050983124841 -24.64683045111454 0
    endloop
  endfacet
  facet normal 0 -1 0
    outer loop
      vertex 9.072949016875159 -24.64683045111454 2.5
      vertex 9.072949016875159 -24.64683045111454 0
      vertex 10.927050983124841 -24.64683045111454 2.5
    endloop
  endfacet
  facet normal -0.5877852522924725 -0.8090169943749479 0
    outer loop
      vertex 10.927050983124841 -24.64683045111454 2.5
      vertex 10.927050983124841 -24.64683045111454 0
      vertex 12.427050983124843 -25.73664424312258 2.5
    endloop
  endfacet
  facet normal -0.9510565162951536 -0.30901699437494684 0
    outer loop
      vertex 13 -27.5 0
      vertex 13 -27.5 2.5
      vertex 12.427050983124843 -25.73664424312258 0
    endloop
  endfacet
  facet normal -0.9510565162951536 -0.30901699437494684 0
    outer loop
      vertex 13 -27.5 2.5
      vertex 12.427050983124843 -25.73664424312258 2.5
      vertex 12.427050983124843 -25.73664424312258 0
    endloop
  endfacet
  facet normal -0.5877852522924725 -0.8090169943749479 0
    outer loop
      vertex 12.427050983124843 -25.73664424312258 2.5
      vertex 10.927050983124841 -24.64683045111454 0
      vertex 12.427050983124843 -25.73664424312258 0
    endloop
  endfacet
  facet normal 0.5877852522924729 0.8090169943749476 0
    outer loop
      vertex 29.072949016875157 -30.35316954888546 0
      vertex 27.572949016875157 -29.26335575687742 0
      vertex 27.572949016875157 -29.26335575687742 2.5
    endloop
  endfacet
  facet normal 0.5877852522924729 0.8090169943749476 0
    outer loop
      vertex 29.072949016875157 -30.35316954888546 0
      vertex 27.572949016875157 -29.26335575687742 2.5
      vertex 29.072949016875157 -30.35316954888546 2.5
    endloop
  endfacet
  facet normal 0.9510565162951536 0.30901699437494684 0
    outer loop
      vertex 27.572949016875157 -29.26335575687742 0
      vertex 27 -27.5 2.5
      vertex 27.572949016875157 -29.26335575687742 2.5
    endloop
  endfacet
  facet normal 0.9510565162951536 0.30901699437494684 0
    outer loop
      vertex 27.572949016875157 -29.26335575687742 0
      vertex 27 -27.5 0
      vertex 27 -27.5 2.5
    endloop
  endfacet
  facet normal 0 1 0
    outer loop
      vertex 29.072949016875157 -30.35316954888546 0
      vertex 29.072949016875157 -30.35316954888546 2.5
      vertex 30.927050983124843 -30.35316954888546 0
    endloop
  endfacet
  facet normal 0 1 0
    outer loop
      vertex 30.927050983124843 -30.35316954888546 0
      vertex 29.072949016875157 -30.35316954888546 2.5
      vertex 30.927050983124843 -30.35316954888546 2.5
    endloop
  endfacet
  facet normal 0.9510565162951536 -0.30901699437494684 0
    outer loop
      vertex 27 -27.5 0
      vertex 27.572949016875157 -25.73664424312258 2.5
      vertex 27 -27.5 2.5
    endloop
  endfacet
  facet normal 0.9510565162951536 -0.30901699437494684 0
    outer loop
      vertex 27 -27.5 0
      vertex 27.572949016875157 -25.73664424312258 0
      vertex 27.572949016875157 -25.73664424312258 2.5
    endloop
  endfacet
  facet normal 0.5877852522924729 -0.8090169943749476 0
    outer loop
      vertex 29.072949016875157 -24.64683045111454 0
      vertex 29.072949016875157 -24.64683045111454 2.5
      vertex 27.572949016875157 -25.73664424312258 0
    endloop
  endfacet
  facet normal 0.5877852522924729 -0.8090169943749476 0
    outer loop
      vertex 27.572949016875157 -25.73664424312258 0
      vertex 29.072949016875157 -24.64683045111454 2.5
      vertex 27.572949016875157 -25.73664424312258 2.5
    endloop
  endfacet
  facet normal 0 -1 0
    outer loop
      vertex 30.927050983124843 -24.64683045111454 0
      vertex 30.927050983124843 -24.64683045111454 2.5
      vertex 29.072949016875157 -24.64683045111454 0
    endloop
  endfacet
  facet normal 0 -1 0
    outer loop
      vertex 29.072949016875157 -24.64683045111454 0
      vertex 30.927050983124843 -24.64683045111454 2.5
      vertex 29.072949016875157 -24.64683045111454 2.5
    endloop
  endfacet
  facet normal -0.5877852522924729 0.8090169943749476 0
    outer loop
      vertex 30.927050983124843 -30.35316954888546 0
      vertex 30.927050983124843 -30.35316954888546 2.5
      vertex 32.42705098312484 -29.26335575687742 0
    endloop
  endfacet
  facet normal -0.5877852522924729 0.8090169943749476 0
    outer loop
      vertex 32.42705098312484 -29.26335575687742 0
      vertex 30.927050983124843 -30.35316954888546 2.5
      vertex 32.42705098312484 -29.26335575687742 2.5
    endloop
  endfacet
  facet normal -0.9510565162951536 0.30901699437494684 0
    outer loop
      vertex 32.42705098312484 -29.26335575687742 0
      vertex 32.42705098312484 -29.26335575687742 2.5
      vertex 33 -27.5 0
    endloop
  endfacet
  facet normal -0.9510565162951536 0.30901699437494684 0
    outer loop
      vertex 33 -27.5 0
      vertex 32.42705098312484 -29.26335575687742 2.5
      vertex 33 -27.5 2.5
    endloop
  endfacet
  facet normal -0.5877852522924729 -0.8090169943749476 0
    outer loop
      vertex 30.927050983124843 -24.64683045111454 0
      vertex 32.42705098312484 -25.73664424312258 2.5
      vertex 30.927050983124843 -24.64683045111454 2.5
    endloop
  endfacet
  facet normal -0.5877852522924729 -0.8090169943749476 0
    outer loop
      vertex 32.42705098312484 -25.73664424312258 0
      vertex 32.42705098312484 -25.73664424312258 2.5
      vertex 30.927050983124843 -24.64683045111454 0
    endloop
  endfacet
  facet normal -0.9510565162951536 -0.30901699437494684 0
    outer loop
      vertex 33 -27.5 0
      vertex 33 -27.5 2.5
      vertex 32.42705098312484 -25.73664424312258 0
    endloop
  endfacet
  facet normal -0.9510565162951536 -0.30901699437494684 0
    outer loop
      vertex 32.42705098312484 -25.73664424312258 0
      vertex 33 -27.5 2.5
      vertex 32.42705098312484 -25.73664424312258 2.5
    endloop
  endfacet
endsolid OpenSCAD_Model
