solid OpenSCAD_Model
  facet normal 1 0 0
    outer loop
      vertex 0 24 70
      vertex 0 5 58
      vertex 0 24 0
    endloop
  endfacet
  facet normal 1 -0 0
    outer loop
      vertex 0 0 70
      vertex 0 5 58
      vertex 0 24 70
    endloop
  endfacet
  facet normal 1 0 0
    outer loop
      vertex 0 5 58
      vertex 0 0 70
      vertex 0 0 58
    endloop
  endfacet
  facet normal 1 0 0
    outer loop
      vertex 0 24 0
      vertex 0 5 58
      vertex 0 5 0
    endloop
  endfacet
  facet normal -1 0 0
    outer loop
      vertex 28.5 5 58
      vertex 28.5 24 0
      vertex 28.5 5 0
    endloop
  endfacet
  facet normal -1 0 0
    outer loop
      vertex 28.5 24 0
      vertex 28.5 5 58
      vertex 28.5 24 70
    endloop
  endfacet
  facet normal -1 0 0
    outer loop
      vertex 28.5 0 70
      vertex 28.5 5 58
      vertex 28.5 0 58
    endloop
  endfacet
  facet normal -1 0 0
    outer loop
      vertex 28.5 5 58
      vertex 28.5 0 70
      vertex 28.5 24 70
    endloop
  endfacet
  facet normal -0 0 1
    outer loop
      vertex 0 24 0
      vertex 28.5 5 0
      vertex 28.5 24 0
    endloop
  endfacet
  facet normal 0 0 1
    outer loop
      vertex 28.5 5 0
      vertex 0 24 0
      vertex 0 5 0
    endloop
  endfacet
  facet normal 0 -1 0
    outer loop
      vertex 0 24 0
      vertex 28.5 24 70
      vertex 0 24 70
    endloop
  endfacet
  facet normal 0 -1 -0
    outer loop
      vertex 28.5 24 70
      vertex 0 24 0
      vertex 28.5 24 0
    endloop
  endfacet
  facet normal 0 1 0
    outer loop
      vertex 28.5 0 70
      vertex 20.5 0 68
      vertex 0 0 70
    endloop
  endfacet
  facet normal 0 1 0
    outer loop
      vertex 28.5 0 70
      vertex 20.5 0 65
      vertex 20.5 0 68
    endloop
  endfacet
  facet normal 0 1 0
    outer loop
      vertex 20.5 0 65
      vertex 28.5 0 58
      vertex 8 0 65
    endloop
  endfacet
  facet normal 0 1 -0
    outer loop
      vertex 28.5 0 58
      vertex 20.5 0 65
      vertex 28.5 0 70
    endloop
  endfacet
  facet normal 0 1 -0
    outer loop
      vertex 8 0 68
      vertex 0 0 70
      vertex 20.5 0 68
    endloop
  endfacet
  facet normal 0 1 -0
    outer loop
      vertex 8 0 65
      vertex 0 0 70
      vertex 8 0 68
    endloop
  endfacet
  facet normal 0 1 0
    outer loop
      vertex 8 0 65
      vertex 0 0 58
      vertex 0 0 70
    endloop
  endfacet
  facet normal 0 1 0
    outer loop
      vertex 0 0 58
      vertex 8 0 65
      vertex 28.5 0 58
    endloop
  endfacet
  facet normal 1 -0 0
    outer loop
      vertex 8 -3 68
      vertex 8 0 65
      vertex 8 0 68
    endloop
  endfacet
  facet normal 1 0 0
    outer loop
      vertex 8 0 65
      vertex 8 -3 68
      vertex 8 -3 65
    endloop
  endfacet
  facet normal -1 0 0
    outer loop
      vertex 20.5 -3 65
      vertex 20.5 0 68
      vertex 20.5 0 65
    endloop
  endfacet
  facet normal -1 -0 0
    outer loop
      vertex 20.5 0 68
      vertex 20.5 -3 65
      vertex 20.5 -3 68
    endloop
  endfacet
  facet normal -0 0 1
    outer loop
      vertex 8 0 65
      vertex 20.5 -3 65
      vertex 20.5 0 65
    endloop
  endfacet
  facet normal 0 0 1
    outer loop
      vertex 20.5 -3 65
      vertex 8 0 65
      vertex 8 -3 65
    endloop
  endfacet
  facet normal 0 0 -1
    outer loop
      vertex 8 -3 68
      vertex 20.5 0 68
      vertex 20.5 -3 68
    endloop
  endfacet
  facet normal -0 0 -1
    outer loop
      vertex 20.5 0 68
      vertex 8 -3 68
      vertex 8 0 68
    endloop
  endfacet
  facet normal -1 0 0
    outer loop
      vertex -3 -3 -3
      vertex -3 27 70
      vertex -3 27 -3
    endloop
  endfacet
  facet normal -1 -0 0
    outer loop
      vertex -3 27 70
      vertex -3 -3 -3
      vertex -3 -3 70
    endloop
  endfacet
  facet normal 1 -0 0
    outer loop
      vertex 31.5 -3 70
      vertex 31.5 27 -3
      vertex 31.5 27 70
    endloop
  endfacet
  facet normal 1 0 0
    outer loop
      vertex 31.5 27 -3
      vertex 31.5 -3 70
      vertex 31.5 -3 -3
    endloop
  endfacet
  facet normal 0 0 -1
    outer loop
      vertex -3 -3 -3
      vertex 31.5 27 -3
      vertex 31.5 -3 -3
    endloop
  endfacet
  facet normal -0 0 -1
    outer loop
      vertex 31.5 27 -3
      vertex -3 -3 -3
      vertex -3 27 -3
    endloop
  endfacet
  facet normal 0 -1 0
    outer loop
      vertex -3 -3 70
      vertex 8 -3 68
      vertex 31.5 -3 70
    endloop
  endfacet
  facet normal 0 -1 0
    outer loop
      vertex -3 -3 70
      vertex 8 -3 65
      vertex 8 -3 68
    endloop
  endfacet
  facet normal 0 -1 -0
    outer loop
      vertex 8 -3 65
      vertex -3 -3 -3
      vertex 20.5 -3 65
    endloop
  endfacet
  facet normal 0 -1 0
    outer loop
      vertex -3 -3 -3
      vertex 8 -3 65
      vertex -3 -3 70
    endloop
  endfacet
  facet normal 0 -1 0
    outer loop
      vertex 20.5 -3 68
      vertex 31.5 -3 70
      vertex 8 -3 68
    endloop
  endfacet
  facet normal 0 -1 0
    outer loop
      vertex 20.5 -3 65
      vertex 31.5 -3 70
      vertex 20.5 -3 68
    endloop
  endfacet
  facet normal 0 -1 0
    outer loop
      vertex 31.5 -3 -3
      vertex 20.5 -3 65
      vertex -3 -3 -3
    endloop
  endfacet
  facet normal 0 -1 0
    outer loop
      vertex 20.5 -3 65
      vertex 31.5 -3 -3
      vertex 31.5 -3 70
    endloop
  endfacet
  facet normal 0 0 1
    outer loop
      vertex 31.5 27 70
      vertex 28.5 24 70
      vertex 31.5 -3 70
    endloop
  endfacet
  facet normal 0 0 1
    outer loop
      vertex 31.5 27 70
      vertex 0 24 70
      vertex 28.5 24 70
    endloop
  endfacet
  facet normal 0 0 1
    outer loop
      vertex 0 24 70
      vertex -3 27 70
      vertex 0 0 70
    endloop
  endfacet
  facet normal -0 0 1
    outer loop
      vertex -3 27 70
      vertex 0 24 70
      vertex 31.5 27 70
    endloop
  endfacet
  facet normal -0 0 1
    outer loop
      vertex 28.5 0 70
      vertex 31.5 -3 70
      vertex 28.5 24 70
    endloop
  endfacet
  facet normal -0 0 1
    outer loop
      vertex 0 0 70
      vertex 31.5 -3 70
      vertex 28.5 0 70
    endloop
  endfacet
  facet normal 0 0 1
    outer loop
      vertex 0 0 70
      vertex -3 -3 70
      vertex 31.5 -3 70
    endloop
  endfacet
  facet normal 0 0 1
    outer loop
      vertex -3 -3 70
      vertex 0 0 70
      vertex -3 27 70
    endloop
  endfacet
  facet normal 0 1 -0
    outer loop
      vertex 31.5 27 -3
      vertex -3 27 70
      vertex 31.5 27 70
    endloop
  endfacet
  facet normal 0 1 0
    outer loop
      vertex -3 27 70
      vertex 31.5 27 -3
      vertex -3 27 -3
    endloop
  endfacet
  facet normal -0 0 1
    outer loop
      vertex 0 5 58
      vertex 28.5 0 58
      vertex 28.5 5 58
    endloop
  endfacet
  facet normal 0 0 1
    outer loop
      vertex 28.5 0 58
      vertex 0 5 58
      vertex 0 0 58
    endloop
  endfacet
  facet normal 0 1 -0
    outer loop
      vertex 28.5 5 0
      vertex 0 5 58
      vertex 28.5 5 58
    endloop
  endfacet
  facet normal 0 1 0
    outer loop
      vertex 0 5 58
      vertex 28.5 5 0
      vertex 0 5 0
    endloop
  endfacet
endsolid OpenSCAD_Model
