solid OpenSCAD_Model
  facet normal 0 0 -1
    outer loop
      vertex 25.05 -12.25 0
      vertex 23.55 -10.75 0
      vertex 25.05 12.25 0
    endloop
  endfacet
  facet normal 0 0 -1
    outer loop
      vertex 25.05 -12.25 0
      vertex -23.55 -10.75 0
      vertex 23.55 -10.75 0
    endloop
  endfacet
  facet normal -0 0 -1
    outer loop
      vertex -23.55 -10.75 0
      vertex -25.05 -12.25 0
      vertex -23.55 10.75 0
    endloop
  endfacet
  facet normal 0 0 -1
    outer loop
      vertex -25.05 -12.25 0
      vertex -23.55 -10.75 0
      vertex 25.05 -12.25 0
    endloop
  endfacet
  facet normal 0 0 -1
    outer loop
      vertex 23.55 10.75 0
      vertex 25.05 12.25 0
      vertex 23.55 -10.75 0
    endloop
  endfacet
  facet normal 0 0 -1
    outer loop
      vertex -23.55 10.75 0
      vertex 25.05 12.25 0
      vertex 23.55 10.75 0
    endloop
  endfacet
  facet normal 0 0 -1
    outer loop
      vertex -23.55 10.75 0
      vertex -25.05 12.25 0
      vertex 25.05 12.25 0
    endloop
  endfacet
  facet normal 0 0 -1
    outer loop
      vertex -25.05 12.25 0
      vertex -23.55 10.75 0
      vertex -25.05 -12.25 0
    endloop
  endfacet
  facet normal 1 -0 0
    outer loop
      vertex 25.05 -12.25 11
      vertex 25.05 12.25 0
      vertex 25.05 12.25 11
    endloop
  endfacet
  facet normal 1 0 0
    outer loop
      vertex 25.05 12.25 0
      vertex 25.05 -12.25 11
      vertex 25.05 -12.25 0
    endloop
  endfacet
  facet normal -1 0 0
    outer loop
      vertex -25.05 -12.25 0
      vertex -25.05 12.25 11
      vertex -25.05 12.25 0
    endloop
  endfacet
  facet normal -1 -0 0
    outer loop
      vertex -25.05 12.25 11
      vertex -25.05 -12.25 0
      vertex -25.05 -12.25 11
    endloop
  endfacet
  facet normal 0 -1 0
    outer loop
      vertex -25.05 -12.25 0
      vertex 25.05 -12.25 11
      vertex -25.05 -12.25 11
    endloop
  endfacet
  facet normal 0 -1 -0
    outer loop
      vertex 25.05 -12.25 11
      vertex -25.05 -12.25 0
      vertex 25.05 -12.25 0
    endloop
  endfacet
  facet normal 0 1 -0
    outer loop
      vertex 25.05 12.25 0
      vertex -25.05 12.25 11
      vertex 25.05 12.25 11
    endloop
  endfacet
  facet normal 0 1 0
    outer loop
      vertex -25.05 12.25 11
      vertex 25.05 12.25 0
      vertex -25.05 12.25 0
    endloop
  endfacet
  facet normal -0 0 1
    outer loop
      vertex -25.05 12.25 11
      vertex 25.05 -12.25 11
      vertex 25.05 12.25 11
    endloop
  endfacet
  facet normal 0 0 1
    outer loop
      vertex 25.05 -12.25 11
      vertex -25.05 12.25 11
      vertex -25.05 -12.25 11
    endloop
  endfacet
  facet normal -1 0 0
    outer loop
      vertex 23.55 -10.75 0
      vertex 23.55 10.75 8.5
      vertex 23.55 10.75 0
    endloop
  endfacet
  facet normal -1 -0 0
    outer loop
      vertex 23.55 10.75 8.5
      vertex 23.55 -10.75 0
      vertex 23.55 -10.75 8.5
    endloop
  endfacet
  facet normal 1 -0 0
    outer loop
      vertex -23.55 -10.75 8.5
      vertex -23.55 10.75 0
      vertex -23.55 10.75 8.5
    endloop
  endfacet
  facet normal 1 0 0
    outer loop
      vertex -23.55 10.75 0
      vertex -23.55 -10.75 8.5
      vertex -23.55 -10.75 0
    endloop
  endfacet
  facet normal 0 1 -0
    outer loop
      vertex 23.55 -10.75 0
      vertex -23.55 -10.75 8.5
      vertex 23.55 -10.75 8.5
    endloop
  endfacet
  facet normal 0 1 0
    outer loop
      vertex -23.55 -10.75 8.5
      vertex 23.55 -10.75 0
      vertex -23.55 -10.75 0
    endloop
  endfacet
  facet normal 0 -1 0
    outer loop
      vertex -23.55 10.75 0
      vertex 23.55 10.75 8.5
      vertex -23.55 10.75 8.5
    endloop
  endfacet
  facet normal 0 -1 -0
    outer loop
      vertex 23.55 10.75 8.5
      vertex -23.55 10.75 0
      vertex 23.55 10.75 0
    endloop
  endfacet
  facet normal 0 0 -1
    outer loop
      vertex -23.55 -10.75 8.5
      vertex 23.55 10.75 8.5
      vertex 23.55 -10.75 8.5
    endloop
  endfacet
  facet normal -0 0 -1
    outer loop
      vertex 23.55 10.75 8.5
      vertex -23.55 -10.75 8.5
      vertex -23.55 10.75 8.5
    endloop
  endfacet
endsolid OpenSCAD_Model
