solid OpenSCAD_Model
  facet normal 0 -0 -1
    outer loop
      vertex 0 0 0
      vertex 0 -10 0
      vertex -3 -10 0
    endloop
  endfacet
  facet normal 0 -0 -1
    outer loop
      vertex 31 -40 0
      vertex 31 -50 0
      vertex 28 -50 0
    endloop
  endfacet
  facet normal 0 0 -1
    outer loop
      vertex 47 3 0
      vertex 31 -50 0
      vertex 31 -40 0
    endloop
  endfacet
  facet normal 0 0 -1
    outer loop
      vertex 28 0 0
      vertex 0 0 0
      vertex -3 3 0
    endloop
  endfacet
  facet normal -0 0 -1
    outer loop
      vertex 0 0 0
      vertex -3 -10 0
      vertex -3 3 0
    endloop
  endfacet
  facet normal -0 0 -1
    outer loop
      vertex 47 3 0
      vertex 28 0 0
      vertex -3 3 0
    endloop
  endfacet
  facet normal 0 0 -1
    outer loop
      vertex 47 3 0
      vertex 31 -40 0
      vertex 43 0 0
    endloop
  endfacet
  facet normal -0 0 -1
    outer loop
      vertex 31 -40 0
      vertex 28 -50 0
      vertex 28 0 0
    endloop
  endfacet
  facet normal 0 0 -1
    outer loop
      vertex 47 3 0
      vertex 31 0 0
      vertex 28 0 0
    endloop
  endfacet
  facet normal -0 -0 -1
    outer loop
      vertex 31 0 0
      vertex 31 -40 0
      vertex 28 0 0
    endloop
  endfacet
  facet normal 0 0 -1
    outer loop
      vertex 47 3 0
      vertex 43 0 0
      vertex 31 0 0
    endloop
  endfacet
  facet normal 0 0 1
    outer loop
      vertex -3 -10 15
      vertex 0 -10 15
      vertex 0 0 15
    endloop
  endfacet
  facet normal 0 0 1
    outer loop
      vertex 28 -50 15
      vertex 31 -50 15
      vertex 31 -40 15
    endloop
  endfacet
  facet normal -0 0 1
    outer loop
      vertex 31 -40 15
      vertex 31 -50 15
      vertex 47 3 15
    endloop
  endfacet
  facet normal 0 0 1
    outer loop
      vertex -3 3 15
      vertex 0 0 15
      vertex 28 0 15
    endloop
  endfacet
  facet normal 0 0 1
    outer loop
      vertex -3 3 15
      vertex -3 -10 15
      vertex 0 0 15
    endloop
  endfacet
  facet normal -0 0 1
    outer loop
      vertex -3 3 15
      vertex 28 0 15
      vertex 47 3 15
    endloop
  endfacet
  facet normal -0 0 1
    outer loop
      vertex 43 0 15
      vertex 31 -40 15
      vertex 47 3 15
    endloop
  endfacet
  facet normal 0 0 1
    outer loop
      vertex 28 0 15
      vertex 28 -50 15
      vertex 31 -40 15
    endloop
  endfacet
  facet normal 0 0 1
    outer loop
      vertex 28 0 15
      vertex 31 0 15
      vertex 47 3 15
    endloop
  endfacet
  facet normal -0 0 1
    outer loop
      vertex 28 0 15
      vertex 31 -40 15
      vertex 31 0 15
    endloop
  endfacet
  facet normal 0 0 1
    outer loop
      vertex 31 0 15
      vertex 43 0 15
      vertex 47 3 15
    endloop
  endfacet
  facet normal 0 1 0
    outer loop
      vertex -3 3 0
      vertex 47 3 15
      vertex 47 3 0
    endloop
  endfacet
  facet normal 0 1 0
    outer loop
      vertex -3 3 0
      vertex -3 3 15
      vertex 47 3 15
    endloop
  endfacet
  facet normal -1 0 0
    outer loop
      vertex -3 -10 0
      vertex -3 3 15
      vertex -3 3 0
    endloop
  endfacet
  facet normal -1 0 0
    outer loop
      vertex -3 -10 0
      vertex -3 -10 15
      vertex -3 3 15
    endloop
  endfacet
  facet normal 0 -1 0
    outer loop
      vertex 0 -10 0
      vertex -3 -10 15
      vertex -3 -10 0
    endloop
  endfacet
  facet normal 0 -1 0
    outer loop
      vertex 0 -10 0
      vertex 0 -10 15
      vertex -3 -10 15
    endloop
  endfacet
  facet normal 1 0 0
    outer loop
      vertex 0 0 0
      vertex 0 -10 15
      vertex 0 -10 0
    endloop
  endfacet
  facet normal 1 0 -0
    outer loop
      vertex 0 0 0
      vertex 0 0 15
      vertex 0 -10 15
    endloop
  endfacet
  facet normal 0 -1 0
    outer loop
      vertex 28 0 0
      vertex 0 0 15
      vertex 0 0 0
    endloop
  endfacet
  facet normal 0 -1 0
    outer loop
      vertex 28 0 0
      vertex 28 0 15
      vertex 0 0 15
    endloop
  endfacet
  facet normal -1 0 0
    outer loop
      vertex 28 -50 0
      vertex 28 0 15
      vertex 28 0 0
    endloop
  endfacet
  facet normal -1 0 0
    outer loop
      vertex 28 -50 0
      vertex 28 -50 15
      vertex 28 0 15
    endloop
  endfacet
  facet normal 0 -1 0
    outer loop
      vertex 31 -50 0
      vertex 28 -50 15
      vertex 28 -50 0
    endloop
  endfacet
  facet normal 0 -1 0
    outer loop
      vertex 31 -50 0
      vertex 31 -50 15
      vertex 28 -50 15
    endloop
  endfacet
  facet normal 0.957328 -0.289005 0
    outer loop
      vertex 47 3 0
      vertex 31 -50 15
      vertex 31 -50 0
    endloop
  endfacet
  facet normal 0.957328 -0.289005 0
    outer loop
      vertex 47 3 0
      vertex 47 3 15
      vertex 31 -50 15
    endloop
  endfacet
  facet normal 0 -1 0
    outer loop
      vertex 43 0 0
      vertex 43 0 15
      vertex 31 0 0
    endloop
  endfacet
  facet normal 0 -1 0
    outer loop
      vertex 31 0 15
      vertex 31 0 0
      vertex 43 0 15
    endloop
  endfacet
  facet normal -0.957826 0.287348 0
    outer loop
      vertex 31 -40 0
      vertex 31 -40 15
      vertex 43 0 0
    endloop
  endfacet
  facet normal -0.957826 0.287348 0
    outer loop
      vertex 43 0 15
      vertex 43 0 0
      vertex 31 -40 15
    endloop
  endfacet
  facet normal 1 0 -0
    outer loop
      vertex 31 0 0
      vertex 31 0 15
      vertex 31 -40 0
    endloop
  endfacet
  facet normal 1 -0 0
    outer loop
      vertex 31 -40 15
      vertex 31 -40 0
      vertex 31 0 15
    endloop
  endfacet
endsolid OpenSCAD_Model
