solid OpenSCAD_Model
  facet normal -0.5680647467311558 -0.8229838658936564 0
    outer loop
      vertex -2.919191917867294 -2.5861783671391017 16
      vertex -2.919191917867294 -2.5861783671391017 3
      vertex -1.3829590594658892 -3.6465633464731178 16
    endloop
  endfacet
  facet normal -0.8854560256532099 -0.46472317204376845 0
    outer loop
      vertex -3.786673087961603 -0.9333310907214747 16
      vertex -3.786673087961603 -0.9333310907214747 3
      vertex -2.919191917867294 -2.5861783671391017 3
    endloop
  endfacet
  facet normal 0 0 1
    outer loop
      vertex -2.919191917867294 -2.5861783671391017 16
      vertex -3.786673087961603 0.9333310907214747 16
      vertex -3.786673087961603 -0.9333310907214747 16
    endloop
  endfacet
  facet normal -1 0 0
    outer loop
      vertex -3.786673087961603 -0.9333310907214747 16
      vertex -3.786673087961603 0.9333310907214747 16
      vertex -3.786673087961603 -0.9333310907214747 3
    endloop
  endfacet
  facet normal -0.8854560256532099 -0.46472317204376845 0
    outer loop
      vertex -2.919191917867294 -2.5861783671391017 16
      vertex -3.786673087961603 -0.9333310907214747 16
      vertex -2.919191917867294 -2.5861783671391017 3
    endloop
  endfacet
  facet normal 0 0 1
    outer loop
      vertex -2.919191917867294 -2.5861783671391017 16
      vertex -1.3829590594658892 -3.6465633464731178 16
      vertex -2.919191917867294 2.5861783671391017 16
    endloop
  endfacet
  facet normal -0.5680647467311558 -0.8229838658936564 0
    outer loop
      vertex -1.3829590594658892 -3.6465633464731178 16
      vertex -2.919191917867294 -2.5861783671391017 3
      vertex -1.3829590594658892 -3.6465633464731178 3
    endloop
  endfacet
  facet normal -0.12053668025532334 -0.9927088740980539 0
    outer loop
      vertex 0.47009305299575876 -3.871564608982411 16
      vertex -1.3829590594658892 -3.6465633464731178 3
      vertex 0.47009305299575876 -3.871564608982411 3
    endloop
  endfacet
  facet normal -0.12053668025532334 -0.9927088740980539 0
    outer loop
      vertex -1.3829590594658892 -3.6465633464731178 16
      vertex -1.3829590594658892 -3.6465633464731178 3
      vertex 0.47009305299575876 -3.871564608982411 16
    endloop
  endfacet
  facet normal 0 0 1
    outer loop
      vertex -1.3829590594658892 -3.6465633464731178 16
      vertex 0.47009305299575876 -3.871564608982411 16
      vertex -1.3829590594658892 3.6465633464731178 16
    endloop
  endfacet
  facet normal -1 0 0
    outer loop
      vertex -3.786673087961603 0.9333310907214747 16
      vertex -3.786673087961603 0.9333310907214747 3
      vertex -3.786673087961603 -0.9333310907214747 3
    endloop
  endfacet
  facet normal -0.8854560256532099 0.46472317204376845 0
    outer loop
      vertex -3.786673087961603 0.9333310907214747 16
      vertex -2.919191917867294 2.5861783671391017 16
      vertex -3.786673087961603 0.9333310907214747 3
    endloop
  endfacet
  facet normal 0 0 1
    outer loop
      vertex -2.919191917867294 -2.5861783671391017 16
      vertex -2.919191917867294 2.5861783671391017 16
      vertex -3.786673087961603 0.9333310907214747 16
    endloop
  endfacet
  facet normal -0.8854560256532099 0.46472317204376845 0
    outer loop
      vertex -2.919191917867294 2.5861783671391017 16
      vertex -2.919191917867294 2.5861783671391017 3
      vertex -3.786673087961603 0.9333310907214747 3
    endloop
  endfacet
  facet normal -0.5680647467311558 0.8229838658936564 0
    outer loop
      vertex -2.919191917867294 2.5861783671391017 16
      vertex -1.3829590594658892 3.6465633464731178 3
      vertex -2.919191917867294 2.5861783671391017 3
    endloop
  endfacet
  facet normal 0 0 1
    outer loop
      vertex -1.3829590594658892 -3.6465633464731178 16
      vertex -1.3829590594658892 3.6465633464731178 16
      vertex -2.919191917867294 2.5861783671391017 16
    endloop
  endfacet
  facet normal 0 0 1
    outer loop
      vertex -1.3829590594658892 3.6465633464731178 16
      vertex 0.47009305299575876 -3.871564608982411 16
      vertex 0.47009305299575965 3.8715646089824105 16
    endloop
  endfacet
  facet normal -0.5680647467311558 0.8229838658936564 0
    outer loop
      vertex -2.919191917867294 2.5861783671391017 16
      vertex -1.3829590594658892 3.6465633464731178 16
      vertex -1.3829590594658892 3.6465633464731178 3
    endloop
  endfacet
  facet normal -0.12053668025532306 0.9927088740980541 0
    outer loop
      vertex -1.3829590594658892 3.6465633464731178 16
      vertex 0.47009305299575965 3.8715646089824105 3
      vertex -1.3829590594658892 3.6465633464731178 3
    endloop
  endfacet
  facet normal -0.12053668025532306 0.9927088740980541 0
    outer loop
      vertex -1.3829590594658892 3.6465633464731178 16
      vertex 0.47009305299575965 3.8715646089824105 16
      vertex 0.47009305299575965 3.8715646089824105 3
    endloop
  endfacet
  facet normal 0.3546048870425359 -0.9350162426854147 0
    outer loop
      vertex 0.47009305299575876 -3.871564608982411 16
      vertex 0.47009305299575876 -3.871564608982411 3
      vertex 2.2154525122515087 -3.209637076985259 16
    endloop
  endfacet
  facet normal 0.3546048870425359 -0.9350162426854147 0
    outer loop
      vertex 2.2154525122515087 -3.209637076985259 16
      vertex 0.47009305299575876 -3.871564608982411 3
      vertex 2.2154525122515087 -3.209637076985259 3
    endloop
  endfacet
  facet normal 0 0 1
    outer loop
      vertex 0.47009305299575876 -3.871564608982411 16
      vertex 2.2154525122515087 -3.209637076985259 16
      vertex 0.47009305299575965 3.8715646089824105 16
    endloop
  endfacet
  facet normal 0.7485107481711012 -0.6631226582407951 0
    outer loop
      vertex 2.2154525122515087 -3.209637076985259 16
      vertex 2.2154525122515087 -3.209637076985259 3
      vertex 3.453278500047519 -1.8124203709706965 3
    endloop
  endfacet
  facet normal 0.7485107481711012 -0.6631226582407951 0
    outer loop
      vertex 2.2154525122515087 -3.209637076985259 16
      vertex 3.453278500047519 -1.8124203709706965 3
      vertex 3.453278500047519 -1.8124203709706965 16
    endloop
  endfacet
  facet normal 0 0 1
    outer loop
      vertex 2.2154525122515087 -3.209637076985259 16
      vertex 3.453278500047519 -1.8124203709706965 16
      vertex 2.215452512251507 3.2096370769852602 16
    endloop
  endfacet
  facet normal 0.970941817426052 -0.2393156642875576 0
    outer loop
      vertex 3.453278500047519 -1.8124203709706965 16
      vertex 3.453278500047519 -1.8124203709706965 3
      vertex 3.9 0 3
    endloop
  endfacet
  facet normal 0.970941817426052 -0.2393156642875576 0
    outer loop
      vertex 3.453278500047519 -1.8124203709706965 16
      vertex 3.9 0 3
      vertex 3.9 0 16
    endloop
  endfacet
  facet normal 0 0 1
    outer loop
      vertex 2.2154525122515087 -3.209637076985259 16
      vertex 2.215452512251507 3.2096370769852602 16
      vertex 0.47009305299575965 3.8715646089824105 16
    endloop
  endfacet
  facet normal 0.35460488704253557 0.9350162426854148 0
    outer loop
      vertex 0.47009305299575965 3.8715646089824105 16
      vertex 2.215452512251507 3.2096370769852602 3
      vertex 0.47009305299575965 3.8715646089824105 3
    endloop
  endfacet
  facet normal 0.35460488704253557 0.9350162426854148 0
    outer loop
      vertex 0.47009305299575965 3.8715646089824105 16
      vertex 2.215452512251507 3.2096370769852602 16
      vertex 2.215452512251507 3.2096370769852602 3
    endloop
  endfacet
  facet normal 0 0 1
    outer loop
      vertex 3.453278500047519 -1.8124203709706965 16
      vertex 3.4532785000475186 1.8124203709706974 16
      vertex 2.215452512251507 3.2096370769852602 16
    endloop
  endfacet
  facet normal 0.970941817426052 0.23931566428755774 0
    outer loop
      vertex 3.9 0 16
      vertex 3.9 0 3
      vertex 3.4532785000475186 1.8124203709706974 3
    endloop
  endfacet
  facet normal 0 0 1
    outer loop
      vertex 3.453278500047519 -1.8124203709706965 16
      vertex 3.9 0 16
      vertex 3.4532785000475186 1.8124203709706974 16
    endloop
  endfacet
  facet normal 0.970941817426052 0.23931566428755774 0
    outer loop
      vertex 3.9 0 16
      vertex 3.4532785000475186 1.8124203709706974 3
      vertex 3.4532785000475186 1.8124203709706974 16
    endloop
  endfacet
  facet normal 0.748510748171101 0.6631226582407954 0
    outer loop
      vertex 3.4532785000475186 1.8124203709706974 16
      vertex 3.4532785000475186 1.8124203709706974 3
      vertex 2.215452512251507 3.2096370769852602 3
    endloop
  endfacet
  facet normal 0.748510748171101 0.6631226582407954 0
    outer loop
      vertex 2.215452512251507 3.2096370769852602 16
      vertex 3.4532785000475186 1.8124203709706974 16
      vertex 2.215452512251507 3.2096370769852602 3
    endloop
  endfacet
  facet normal -0.7557495743542586 -0.6548607339452849 0
    outer loop
      vertex -5.804649376535151 -3.7304216404436223 3
      vertex -4.518539064222467 -5.214672063044383 0
      vertex -4.518539064222467 -5.214672063044383 3
    endloop
  endfacet
  facet normal -0.9898214418809328 -0.14231483827328514 0
    outer loop
      vertex -6.9 0 3
      vertex -6.9 0 0
      vertex -6.620501517940032 -1.943954642205866 0
    endloop
  endfacet
  facet normal -0.9898214418809328 -0.14231483827328514 0
    outer loop
      vertex -6.620501517940032 -1.943954642205866 3
      vertex -6.9 0 3
      vertex -6.620501517940032 -1.943954642205866 0
    endloop
  endfacet
  facet normal -0.9096319953545183 -0.4154150130018865 0
    outer loop
      vertex -6.620501517940032 -1.943954642205866 3
      vertex -6.620501517940032 -1.943954642205866 0
      vertex -5.804649376535151 -3.7304216404436223 0
    endloop
  endfacet
  facet normal -0.7557495743542586 -0.6548607339452849 0
    outer loop
      vertex -5.804649376535151 -3.7304216404436223 3
      vertex -5.804649376535151 -3.7304216404436223 0
      vertex -4.518539064222467 -5.214672063044383 0
    endloop
  endfacet
  facet normal -0.9096319953545183 -0.4154150130018865 0
    outer loop
      vertex -5.804649376535151 -3.7304216404436223 3
      vertex -6.620501517940032 -1.943954642205866 3
      vertex -5.804649376535151 -3.7304216404436223 0
    endloop
  endfacet
  facet normal 0 0 1
    outer loop
      vertex -5.804649376535151 -3.7304216404436223 3
      vertex -6.620501517940032 1.943954642205866 3
      vertex -6.620501517940032 -1.943954642205866 3
    endloop
  endfacet
  facet normal 0 0 1
    outer loop
      vertex -5.804649376535151 -3.7304216404436223 3
      vertex -4.518539064222467 -5.214672063044383 3
      vertex -5.804649376535151 3.7304216404436223 3
    endloop
  endfacet
  facet normal -0.5406408174555973 -0.8412535328311813 0
    outer loop
      vertex -2.866363589713015 -6.276460767946178 3
      vertex -4.518539064222467 -5.214672063044383 0
      vertex -2.866363589713015 -6.276460767946178 0
    endloop
  endfacet
  facet normal -0.5406408174555973 -0.8412535328311813 0
    outer loop
      vertex -4.518539064222467 -5.214672063044383 3
      vertex -4.518539064222467 -5.214672063044383 0
      vertex -2.866363589713015 -6.276460767946178 3
    endloop
  endfacet
  facet normal 0 0 1
    outer loop
      vertex -4.518539064222467 -5.214672063044383 3
      vertex -2.866363589713015 -6.276460767946178 3
      vertex -2.919191917867294 -2.5861783671391017 3
    endloop
  endfacet
  facet normal -0.2817325568414294 -0.9594929736144976 0
    outer loop
      vertex -2.866363589713015 -6.276460767946178 3
      vertex -2.866363589713015 -6.276460767946178 0
      vertex -0.9819723840856681 -6.829767948978436 3
    endloop
  endfacet
  facet normal 0 -1 0
    outer loop
      vertex -0.9819723840856681 -6.829767948978436 3
      vertex -0.9819723840856681 -6.829767948978436 0
      vertex 0.9819723840856681 -6.829767948978436 3
    endloop
  endfacet
  facet normal -0.2817325568414294 -0.9594929736144976 0
    outer loop
      vertex -0.9819723840856681 -6.829767948978436 3
      vertex -2.866363589713015 -6.276460767946178 0
      vertex -0.9819723840856681 -6.829767948978436 0
    endloop
  endfacet
  facet normal 0 0 1
    outer loop
      vertex -2.866363589713015 -6.276460767946178 3
      vertex -0.9819723840856681 -6.829767948978436 3
      vertex -1.3829590594658892 -3.6465633464731178 3
    endloop
  endfacet
  facet normal 0 0 1
    outer loop
      vertex -0.9819723840856681 -6.829767948978436 3
      vertex 0.47009305299575876 -3.871564608982411 3
      vertex -1.3829590594658892 -3.6465633464731178 3
    endloop
  endfacet
  facet normal 0 0 1
    outer loop
      vertex -4.518539064222467 -5.214672063044383 3
      vertex -2.919191917867294 -2.5861783671391017 3
      vertex -3.786673087961603 -0.9333310907214747 3
    endloop
  endfacet
  facet normal 0 0 1
    outer loop
      vertex -2.866363589713015 -6.276460767946178 3
      vertex -1.3829590594658892 -3.6465633464731178 3
      vertex -2.919191917867294 -2.5861783671391017 3
    endloop
  endfacet
  facet normal 0 0 1
    outer loop
      vertex -4.518539064222467 -5.214672063044383 3
      vertex -3.786673087961603 -0.9333310907214747 3
      vertex -4.518539064222467 5.214672063044383 3
    endloop
  endfacet
  facet normal -0.9898214418809328 0.14231483827328514 0
    outer loop
      vertex -6.620501517940032 1.943954642205866 3
      vertex -6.620501517940032 1.943954642205866 0
      vertex -6.9 0 0
    endloop
  endfacet
  facet normal 0 0 1
    outer loop
      vertex -6.620501517940032 -1.943954642205866 3
      vertex -6.620501517940032 1.943954642205866 3
      vertex -6.9 0 3
    endloop
  endfacet
  facet normal -0.9898214418809328 0.14231483827328514 0
    outer loop
      vertex -6.9 0 3
      vertex -6.620501517940032 1.943954642205866 3
      vertex -6.9 0 0
    endloop
  endfacet
  facet normal 0 0 1
    outer loop
      vertex -5.804649376535151 -3.7304216404436223 3
      vertex -5.804649376535151 3.7304216404436223 3
      vertex -6.620501517940032 1.943954642205866 3
    endloop
  endfacet
  facet normal 0 0 1
    outer loop
      vertex -4.518539064222467 -5.214672063044383 3
      vertex -4.518539064222467 5.214672063044383 3
      vertex -5.804649376535151 3.7304216404436223 3
    endloop
  endfacet
  facet normal -0.9096319953545183 0.4154150130018865 0
    outer loop
      vertex -5.804649376535151 3.7304216404436223 3
      vertex -5.804649376535151 3.7304216404436223 0
      vertex -6.620501517940032 1.943954642205866 0
    endloop
  endfacet
  facet normal -0.9096319953545183 0.4154150130018865 0
    outer loop
      vertex -6.620501517940032 1.943954642205866 3
      vertex -5.804649376535151 3.7304216404436223 3
      vertex -6.620501517940032 1.943954642205866 0
    endloop
  endfacet
  facet normal -0.7557495743542586 0.6548607339452849 0
    outer loop
      vertex -5.804649376535151 3.7304216404436223 3
      vertex -4.518539064222467 5.214672063044383 3
      vertex -5.804649376535151 3.7304216404436223 0
    endloop
  endfacet
  facet normal -0.7557495743542586 0.6548607339452849 0
    outer loop
      vertex -4.518539064222467 5.214672063044383 3
      vertex -4.518539064222467 5.214672063044383 0
      vertex -5.804649376535151 3.7304216404436223 0
    endloop
  endfacet
  facet normal 0 0 1
    outer loop
      vertex -4.518539064222467 5.214672063044383 3
      vertex -3.786673087961603 -0.9333310907214747 3
      vertex -3.786673087961603 0.9333310907214747 3
    endloop
  endfacet
  facet normal 0 0 1
    outer loop
      vertex -4.518539064222467 5.214672063044383 3
      vertex -3.786673087961603 0.9333310907214747 3
      vertex -2.919191917867294 2.5861783671391017 3
    endloop
  endfacet
  facet normal 0 0 1
    outer loop
      vertex -2.8663635897130164 6.276460767946177 3
      vertex -2.919191917867294 2.5861783671391017 3
      vertex -1.3829590594658892 3.6465633464731178 3
    endloop
  endfacet
  facet normal -0.5406408174555972 0.8412535328311814 0
    outer loop
      vertex -4.518539064222467 5.214672063044383 3
      vertex -2.8663635897130164 6.276460767946177 0
      vertex -4.518539064222467 5.214672063044383 0
    endloop
  endfacet
  facet normal -0.2817325568414296 0.9594929736144975 0
    outer loop
      vertex -2.8663635897130164 6.276460767946177 3
      vertex -0.9819723840856681 6.829767948978436 0
      vertex -2.8663635897130164 6.276460767946177 0
    endloop
  endfacet
  facet normal 0 0 1
    outer loop
      vertex -4.518539064222467 5.214672063044383 3
      vertex -2.919191917867294 2.5861783671391017 3
      vertex -2.8663635897130164 6.276460767946177 3
    endloop
  endfacet
  facet normal -0.5406408174555972 0.8412535328311814 0
    outer loop
      vertex -4.518539064222467 5.214672063044383 3
      vertex -2.8663635897130164 6.276460767946177 3
      vertex -2.8663635897130164 6.276460767946177 0
    endloop
  endfacet
  facet normal 0 0 1
    outer loop
      vertex -2.8663635897130164 6.276460767946177 3
      vertex -1.3829590594658892 3.6465633464731178 3
      vertex -0.9819723840856681 6.829767948978436 3
    endloop
  endfacet
  facet normal -0.2817325568414296 0.9594929736144975 0
    outer loop
      vertex -2.8663635897130164 6.276460767946177 3
      vertex -0.9819723840856681 6.829767948978436 3
      vertex -0.9819723840856681 6.829767948978436 0
    endloop
  endfacet
  facet normal 0 0 1
    outer loop
      vertex -0.9819723840856681 6.829767948978436 3
      vertex -1.3829590594658892 3.6465633464731178 3
      vertex 0.47009305299575965 3.8715646089824105 3
    endloop
  endfacet
  facet normal 0 1 0
    outer loop
      vertex -0.9819723840856681 6.829767948978436 3
      vertex 0.9819723840856681 6.829767948978436 0
      vertex -0.9819723840856681 6.829767948978436 0
    endloop
  endfacet
  facet normal 0 -1 0
    outer loop
      vertex 0.9819723840856681 -6.829767948978436 3
      vertex -0.9819723840856681 -6.829767948978436 0
      vertex 0.9819723840856681 -6.829767948978436 0
    endloop
  endfacet
  facet normal 0.2817325568414298 -0.9594929736144974 0
    outer loop
      vertex 2.866363589713018 -6.276460767946176 3
      vertex 0.9819723840856681 -6.829767948978436 0
      vertex 2.866363589713018 -6.276460767946176 0
    endloop
  endfacet
  facet normal 0 0 1
    outer loop
      vertex -0.9819723840856681 -6.829767948978436 3
      vertex 0.9819723840856681 -6.829767948978436 3
      vertex 0.47009305299575876 -3.871564608982411 3
    endloop
  endfacet
  facet normal 0.2817325568414298 -0.9594929736144974 0
    outer loop
      vertex 0.9819723840856681 -6.829767948978436 3
      vertex 0.9819723840856681 -6.829767948978436 0
      vertex 2.866363589713018 -6.276460767946176 3
    endloop
  endfacet
  facet normal 0 0 1
    outer loop
      vertex 0.9819723840856681 -6.829767948978436 3
      vertex 2.2154525122515087 -3.209637076985259 3
      vertex 0.47009305299575876 -3.871564608982411 3
    endloop
  endfacet
  facet normal 0 0 1
    outer loop
      vertex 0.9819723840856681 -6.829767948978436 3
      vertex 2.866363589713018 -6.276460767946176 3
      vertex 2.2154525122515087 -3.209637076985259 3
    endloop
  endfacet
  facet normal 0.5406408174555981 -0.8412535328311808 0
    outer loop
      vertex 4.51853906422247 -5.21467206304438 3
      vertex 2.866363589713018 -6.276460767946176 0
      vertex 4.51853906422247 -5.21467206304438 0
    endloop
  endfacet
  facet normal 0.5406408174555981 -0.8412535328311808 0
    outer loop
      vertex 2.866363589713018 -6.276460767946176 3
      vertex 2.866363589713018 -6.276460767946176 0
      vertex 4.51853906422247 -5.21467206304438 3
    endloop
  endfacet
  facet normal 0 0 1
    outer loop
      vertex 2.866363589713018 -6.276460767946176 3
      vertex 3.453278500047519 -1.8124203709706965 3
      vertex 2.2154525122515087 -3.209637076985259 3
    endloop
  endfacet
  facet normal 0 0 1
    outer loop
      vertex 2.866363589713018 -6.276460767946176 3
      vertex 4.51853906422247 -5.21467206304438 3
      vertex 3.453278500047519 -1.8124203709706965 3
    endloop
  endfacet
  facet normal 0 0 1
    outer loop
      vertex 4.51853906422247 -5.21467206304438 3
      vertex 3.9 0 3
      vertex 3.453278500047519 -1.8124203709706965 3
    endloop
  endfacet
  facet normal 0.7557495743542583 -0.6548607339452852 0
    outer loop
      vertex 4.51853906422247 -5.21467206304438 3
      vertex 4.51853906422247 -5.21467206304438 0
      vertex 5.804649376535149 -3.7304216404436255 0
    endloop
  endfacet
  facet normal 0.9096319953545182 -0.41541501300188666 0
    outer loop
      vertex 5.804649376535149 -3.7304216404436255 3
      vertex 5.804649376535149 -3.7304216404436255 0
      vertex 6.620501517940032 -1.943954642205866 0
    endloop
  endfacet
  facet normal 0.7557495743542583 -0.6548607339452852 0
    outer loop
      vertex 4.51853906422247 -5.21467206304438 3
      vertex 5.804649376535149 -3.7304216404436255 0
      vertex 5.804649376535149 -3.7304216404436255 3
    endloop
  endfacet
  facet normal 0.9096319953545182 -0.41541501300188666 0
    outer loop
      vertex 5.804649376535149 -3.7304216404436255 3
      vertex 6.620501517940032 -1.943954642205866 0
      vertex 6.620501517940032 -1.943954642205866 3
    endloop
  endfacet
  facet normal 0.9898214418809328 -0.14231483827328514 0
    outer loop
      vertex 6.620501517940032 -1.943954642205866 3
      vertex 6.620501517940032 -1.943954642205866 0
      vertex 6.9 0 0
    endloop
  endfacet
  facet normal 0 0 1
    outer loop
      vertex 4.51853906422247 -5.21467206304438 3
      vertex 5.804649376535149 -3.7304216404436255 3
      vertex 4.518539064222467 5.214672063044383 3
    endloop
  endfacet
  facet normal 0 0 1
    outer loop
      vertex 5.804649376535149 -3.7304216404436255 3
      vertex 6.620501517940032 -1.943954642205866 3
      vertex 5.804649376535151 3.7304216404436232 3
    endloop
  endfacet
  facet normal 0.9898214418809328 -0.14231483827328514 0
    outer loop
      vertex 6.620501517940032 -1.943954642205866 3
      vertex 6.9 0 0
      vertex 6.9 0 3
    endloop
  endfacet
  facet normal 0 0 1
    outer loop
      vertex 2.8663635897130164 6.276460767946177 3
      vertex 0.47009305299575965 3.8715646089824105 3
      vertex 2.215452512251507 3.2096370769852602 3
    endloop
  endfacet
  facet normal 0 0 1
    outer loop
      vertex 4.51853906422247 -5.21467206304438 3
      vertex 4.518539064222467 5.214672063044383 3
      vertex 3.9 0 3
    endloop
  endfacet
  facet normal 0 0 1
    outer loop
      vertex 2.8663635897130164 6.276460767946177 3
      vertex 2.215452512251507 3.2096370769852602 3
      vertex 3.4532785000475186 1.8124203709706974 3
    endloop
  endfacet
  facet normal 0 0 1
    outer loop
      vertex 4.518539064222467 5.214672063044383 3
      vertex 3.4532785000475186 1.8124203709706974 3
      vertex 3.9 0 3
    endloop
  endfacet
  facet normal 0 0 1
    outer loop
      vertex 2.8663635897130164 6.276460767946177 3
      vertex 3.4532785000475186 1.8124203709706974 3
      vertex 4.518539064222467 5.214672063044383 3
    endloop
  endfacet
  facet normal 0.2817325568414296 0.9594929736144975 0
    outer loop
      vertex 0.9819723840856681 6.829767948978436 3
      vertex 2.8663635897130164 6.276460767946177 0
      vertex 0.9819723840856681 6.829767948978436 0
    endloop
  endfacet
  facet normal 0 0 1
    outer loop
      vertex -0.9819723840856681 6.829767948978436 3
      vertex 0.47009305299575965 3.8715646089824105 3
      vertex 0.9819723840856681 6.829767948978436 3
    endloop
  endfacet
  facet normal 0 0 1
    outer loop
      vertex 0.9819723840856681 6.829767948978436 3
      vertex 0.47009305299575965 3.8715646089824105 3
      vertex 2.8663635897130164 6.276460767946177 3
    endloop
  endfacet
  facet normal 0.2817325568414296 0.9594929736144975 0
    outer loop
      vertex 0.9819723840856681 6.829767948978436 3
      vertex 2.8663635897130164 6.276460767946177 3
      vertex 2.8663635897130164 6.276460767946177 0
    endloop
  endfacet
  facet normal 0 1 0
    outer loop
      vertex -0.9819723840856681 6.829767948978436 3
      vertex 0.9819723840856681 6.829767948978436 3
      vertex 0.9819723840856681 6.829767948978436 0
    endloop
  endfacet
  facet normal 0.5406408174555972 0.8412535328311814 0
    outer loop
      vertex 2.8663635897130164 6.276460767946177 3
      vertex 4.518539064222467 5.214672063044383 0
      vertex 2.8663635897130164 6.276460767946177 0
    endloop
  endfacet
  facet normal 0.5406408174555972 0.8412535328311814 0
    outer loop
      vertex 2.8663635897130164 6.276460767946177 3
      vertex 4.518539064222467 5.214672063044383 3
      vertex 4.518539064222467 5.214672063044383 0
    endloop
  endfacet
  facet normal 0 0 1
    outer loop
      vertex 5.804649376535149 -3.7304216404436255 3
      vertex 5.804649376535151 3.7304216404436232 3
      vertex 4.518539064222467 5.214672063044383 3
    endloop
  endfacet
  facet normal 0 0 1
    outer loop
      vertex 6.620501517940032 -1.943954642205866 3
      vertex 6.9 0 3
      vertex 6.620501517940032 1.943954642205865 3
    endloop
  endfacet
  facet normal 0 0 1
    outer loop
      vertex 6.620501517940032 -1.943954642205866 3
      vertex 6.620501517940032 1.943954642205865 3
      vertex 5.804649376535151 3.7304216404436232 3
    endloop
  endfacet
  facet normal 0.9898214418809328 0.14231483827328523 0
    outer loop
      vertex 6.9 0 3
      vertex 6.620501517940032 1.943954642205865 0
      vertex 6.620501517940032 1.943954642205865 3
    endloop
  endfacet
  facet normal 0.7557495743542584 0.6548607339452851 0
    outer loop
      vertex 5.804649376535151 3.7304216404436232 3
      vertex 5.804649376535151 3.7304216404436232 0
      vertex 4.518539064222467 5.214672063044383 0
    endloop
  endfacet
  facet normal 0.9096319953545186 0.4154150130018861 0
    outer loop
      vertex 6.620501517940032 1.943954642205865 3
      vertex 6.620501517940032 1.943954642205865 0
      vertex 5.804649376535151 3.7304216404436232 0
    endloop
  endfacet
  facet normal 0.9096319953545186 0.4154150130018861 0
    outer loop
      vertex 6.620501517940032 1.943954642205865 3
      vertex 5.804649376535151 3.7304216404436232 0
      vertex 5.804649376535151 3.7304216404436232 3
    endloop
  endfacet
  facet normal 0.9898214418809328 0.14231483827328523 0
    outer loop
      vertex 6.9 0 3
      vertex 6.9 0 0
      vertex 6.620501517940032 1.943954642205865 0
    endloop
  endfacet
  facet normal 0.7557495743542584 0.6548607339452851 0
    outer loop
      vertex 4.518539064222467 5.214672063044383 3
      vertex 5.804649376535151 3.7304216404436232 3
      vertex 4.518539064222467 5.214672063044383 0
    endloop
  endfacet
  facet normal -0.796093065705644 -0.6051742151937648 0
    outer loop
      vertex -7.711714585508302 -4.639984714593196 -100
      vertex -6.533959427308179 -6.189295129680808 -100
      vertex -7.711714585508302 -4.639984714593196 0
    endloop
  endfacet
  facet normal -0.6473862847818279 -0.7621620551276364 0
    outer loop
      vertex -5.050683588261442 -7.449200983412015 -100
      vertex -5.050683588261442 -7.449200983412015 0
      vertex -6.533959427308179 -6.189295129680808 -100
    endloop
  endfacet
  facet normal 0 0 -1
    outer loop
      vertex -8.528878540645222 -2.8737137712238194 -100
      vertex -8.947241614389236 -0.9730711658154744 -100
      vertex -8.528878540645222 2.8737137712238194 -100
    endloop
  endfacet
  facet normal 0 0 -1
    outer loop
      vertex -7.711714585508302 -4.639984714593196 -100
      vertex -8.528878540645222 -2.8737137712238194 -100
      vertex -7.711714585508302 4.639984714593196 -100
    endloop
  endfacet
  facet normal 0 0 -1
    outer loop
      vertex -7.711714585508302 -4.639984714593196 -100
      vertex -6.533959427308179 6.189295129680808 -100
      vertex -6.533959427308179 -6.189295129680808 -100
    endloop
  endfacet
  facet normal 0 0 -1
    outer loop
      vertex -5.050683588261442 -7.449200983412015 -100
      vertex -6.533959427308179 -6.189295129680808 -100
      vertex -5.050683588261442 7.449200983412015 -100
    endloop
  endfacet
  facet normal -0.907575419670957 -0.41988910156026477 0
    outer loop
      vertex -7.711714585508302 -4.639984714593196 -100
      vertex -8.528878540645222 -2.8737137712238194 0
      vertex -8.528878540645222 -2.8737137712238194 -100
    endloop
  endfacet
  facet normal -0.9766205557100867 -0.21497044021102404 0
    outer loop
      vertex -8.528878540645222 -2.8737137712238194 -100
      vertex -8.947241614389236 -0.9730711658154744 0
      vertex -8.947241614389236 -0.9730711658154744 -100
    endloop
  endfacet
  facet normal -0.46840844069979 -0.8835120444460229 0
    outer loop
      vertex -5.050683588261442 -7.449200983412015 -100
      vertex -3.331243398059228 -8.360790478351124 -100
      vertex -3.331243398059228 -8.360790478351124 0
    endloop
  endfacet
  facet normal -0.26752833852922087 -0.963549992519223 0
    outer loop
      vertex -3.331243398059228 -8.360790478351124 -100
      vertex -1.4560379689748846 -8.881438702873735 -100
      vertex -1.4560379689748846 -8.881438702873735 0
    endloop
  endfacet
  facet normal -0.05413890858541686 -0.9985334138511239 0
    outer loop
      vertex -1.4560379689748846 -8.881438702873735 -100
      vertex 0.4872501772687614 -8.986800724660114 -100
      vertex 0.4872501772687614 -8.986800724660114 0
    endloop
  endfacet
  facet normal 0 0 -1
    outer loop
      vertex -5.050683588261442 -7.449200983412015 -100
      vertex -3.331243398059228 8.360790478351124 -100
      vertex -3.331243398059228 -8.360790478351124 -100
    endloop
  endfacet
  facet normal 0 0 -1
    outer loop
      vertex -3.331243398059228 -8.360790478351124 -100
      vertex -1.4560379689748824 8.881438702873735 -100
      vertex -1.4560379689748846 -8.881438702873735 -100
    endloop
  endfacet
  facet normal 0 0 -1
    outer loop
      vertex -1.4560379689748846 -8.881438702873735 -100
      vertex 0.48725017726875697 8.986800724660114 -100
      vertex 0.4872501772687614 -8.986800724660114 -100
    endloop
  endfacet
  facet normal -0.796093065705644 -0.6051742151937648 0
    outer loop
      vertex -6.533959427308179 -6.189295129680808 -100
      vertex -6.533959427308179 -6.189295129680808 0
      vertex -7.711714585508302 -4.639984714593196 0
    endloop
  endfacet
  facet normal -0.46840844069979 -0.8835120444460229 0
    outer loop
      vertex -5.050683588261442 -7.449200983412015 -100
      vertex -3.331243398059228 -8.360790478351124 0
      vertex -5.050683588261442 -7.449200983412015 0
    endloop
  endfacet
  facet normal -0.6473862847818279 -0.7621620551276364 0
    outer loop
      vertex -6.533959427308179 -6.189295129680808 -100
      vertex -5.050683588261442 -7.449200983412015 0
      vertex -6.533959427308179 -6.189295129680808 0
    endloop
  endfacet
  facet normal 0 0 1
    outer loop
      vertex -5.050683588261442 -7.449200983412015 0
      vertex -5.804649376535151 -3.7304216404436223 0
      vertex -6.533959427308179 -6.189295129680808 0
    endloop
  endfacet
  facet normal 0 0 1
    outer loop
      vertex -5.050683588261442 -7.449200983412015 0
      vertex -4.518539064222467 -5.214672063044383 0
      vertex -5.804649376535151 -3.7304216404436223 0
    endloop
  endfacet
  facet normal -0.907575419670957 -0.41988910156026477 0
    outer loop
      vertex -7.711714585508302 -4.639984714593196 -100
      vertex -7.711714585508302 -4.639984714593196 0
      vertex -8.528878540645222 -2.8737137712238194 0
    endloop
  endfacet
  facet normal -0.9766205557100867 -0.21497044021102404 0
    outer loop
      vertex -8.528878540645222 -2.8737137712238194 -100
      vertex -8.528878540645222 -2.8737137712238194 0
      vertex -8.947241614389236 -0.9730711658154744 0
    endloop
  endfacet
  facet normal -1 0 0
    outer loop
      vertex -8.947241614389236 -0.9730711658154744 -100
      vertex -8.947241614389236 -0.9730711658154744 0
      vertex -8.947241614389236 0.9730711658154744 0
    endloop
  endfacet
  facet normal 0 0 1
    outer loop
      vertex -7.711714585508302 -4.639984714593196 0
      vertex -8.528878540645222 2.8737137712238194 0
      vertex -8.528878540645222 -2.8737137712238194 0
    endloop
  endfacet
  facet normal 0 0 1
    outer loop
      vertex -8.528878540645222 -2.8737137712238194 0
      vertex -8.947241614389236 0.9730711658154744 0
      vertex -8.947241614389236 -0.9730711658154744 0
    endloop
  endfacet
  facet normal 0 0 1
    outer loop
      vertex -7.711714585508302 -4.639984714593196 0
      vertex -6.533959427308179 -6.189295129680808 0
      vertex -7.711714585508302 4.639984714593196 0
    endloop
  endfacet
  facet normal 0 0 1
    outer loop
      vertex -6.533959427308179 -6.189295129680808 0
      vertex -6.9 0 0
      vertex -7.711714585508302 4.639984714593196 0
    endloop
  endfacet
  facet normal 0 0 1
    outer loop
      vertex -6.533959427308179 -6.189295129680808 0
      vertex -5.804649376535151 -3.7304216404436223 0
      vertex -6.620501517940032 -1.943954642205866 0
    endloop
  endfacet
  facet normal 0 0 1
    outer loop
      vertex -6.533959427308179 -6.189295129680808 0
      vertex -6.620501517940032 -1.943954642205866 0
      vertex -6.9 0 0
    endloop
  endfacet
  facet normal -0.26752833852922087 -0.963549992519223 0
    outer loop
      vertex -3.331243398059228 -8.360790478351124 -100
      vertex -1.4560379689748846 -8.881438702873735 0
      vertex -3.331243398059228 -8.360790478351124 0
    endloop
  endfacet
  facet normal -0.05413890858541686 -0.9985334138511239 0
    outer loop
      vertex -1.4560379689748846 -8.881438702873735 -100
      vertex 0.4872501772687614 -8.986800724660114 0
      vertex -1.4560379689748846 -8.881438702873735 0
    endloop
  endfacet
  facet normal 0 0 1
    outer loop
      vertex -5.050683588261442 -7.449200983412015 0
      vertex -3.331243398059228 -8.360790478351124 0
      vertex -4.518539064222467 -5.214672063044383 0
    endloop
  endfacet
  facet normal 0 0 1
    outer loop
      vertex -3.331243398059228 -8.360790478351124 0
      vertex -1.4560379689748846 -8.881438702873735 0
      vertex -2.866363589713015 -6.276460767946178 0
    endloop
  endfacet
  facet normal 0 0 1
    outer loop
      vertex -3.331243398059228 -8.360790478351124 0
      vertex -2.866363589713015 -6.276460767946178 0
      vertex -4.518539064222467 -5.214672063044383 0
    endloop
  endfacet
  facet normal 0 0 1
    outer loop
      vertex -1.4560379689748846 -8.881438702873735 0
      vertex -0.9819723840856681 -6.829767948978436 0
      vertex -2.866363589713015 -6.276460767946178 0
    endloop
  endfacet
  facet normal 0 0 1
    outer loop
      vertex -1.4560379689748846 -8.881438702873735 0
      vertex 0.4872501772687614 -8.986800724660114 0
      vertex -0.9819723840856681 -6.829767948978436 0
    endloop
  endfacet
  facet normal 0 0 -1
    outer loop
      vertex -8.947241614389236 -0.9730711658154744 -100
      vertex -8.947241614389236 0.9730711658154744 -100
      vertex -8.528878540645222 2.8737137712238194 -100
    endloop
  endfacet
  facet normal 0 0 -1
    outer loop
      vertex -8.528878540645222 -2.8737137712238194 -100
      vertex -8.528878540645222 2.8737137712238194 -100
      vertex -7.711714585508302 4.639984714593196 -100
    endloop
  endfacet
  facet normal 0 0 -1
    outer loop
      vertex -7.711714585508302 -4.639984714593196 -100
      vertex -7.711714585508302 4.639984714593196 -100
      vertex -6.533959427308179 6.189295129680808 -100
    endloop
  endfacet
  facet normal 0 0 -1
    outer loop
      vertex -6.533959427308179 -6.189295129680808 -100
      vertex -6.533959427308179 6.189295129680808 -100
      vertex -5.050683588261442 7.449200983412015 -100
    endloop
  endfacet
  facet normal 0 0 -1
    outer loop
      vertex -5.050683588261442 -7.449200983412015 -100
      vertex -5.050683588261442 7.449200983412015 -100
      vertex -3.331243398059228 8.360790478351124 -100
    endloop
  endfacet
  facet normal -1 0 0
    outer loop
      vertex -8.947241614389236 -0.9730711658154744 -100
      vertex -8.947241614389236 0.9730711658154744 0
      vertex -8.947241614389236 0.9730711658154744 -100
    endloop
  endfacet
  facet normal -0.9766205557100867 0.21497044021102404 0
    outer loop
      vertex -8.947241614389236 0.9730711658154744 -100
      vertex -8.528878540645222 2.8737137712238194 0
      vertex -8.528878540645222 2.8737137712238194 -100
    endloop
  endfacet
  facet normal -0.907575419670957 0.41988910156026477 0
    outer loop
      vertex -8.528878540645222 2.8737137712238194 -100
      vertex -7.711714585508302 4.639984714593196 0
      vertex -7.711714585508302 4.639984714593196 -100
    endloop
  endfacet
  facet normal -0.796093065705644 0.6051742151937648 0
    outer loop
      vertex -7.711714585508302 4.639984714593196 -100
      vertex -6.533959427308179 6.189295129680808 0
      vertex -6.533959427308179 6.189295129680808 -100
    endloop
  endfacet
  facet normal -0.6473862847818279 0.7621620551276364 0
    outer loop
      vertex -6.533959427308179 6.189295129680808 -100
      vertex -6.533959427308179 6.189295129680808 0
      vertex -5.050683588261442 7.449200983412015 -100
    endloop
  endfacet
  facet normal -0.46840844069979 0.8835120444460229 0
    outer loop
      vertex -5.050683588261442 7.449200983412015 -100
      vertex -5.050683588261442 7.449200983412015 0
      vertex -3.331243398059228 8.360790478351124 -100
    endloop
  endfacet
  facet normal 0 0 -1
    outer loop
      vertex -3.331243398059228 -8.360790478351124 -100
      vertex -3.331243398059228 8.360790478351124 -100
      vertex -1.4560379689748824 8.881438702873735 -100
    endloop
  endfacet
  facet normal 0 0 -1
    outer loop
      vertex -1.4560379689748846 -8.881438702873735 -100
      vertex -1.4560379689748824 8.881438702873735 -100
      vertex 0.48725017726875697 8.986800724660114 -100
    endloop
  endfacet
  facet normal -0.2675283385292206 0.963549992519223 0
    outer loop
      vertex -3.331243398059228 8.360790478351124 -100
      vertex -3.331243398059228 8.360790478351124 0
      vertex -1.4560379689748824 8.881438702873735 -100
    endloop
  endfacet
  facet normal -0.054138908585417055 0.9985334138511239 0
    outer loop
      vertex -1.4560379689748824 8.881438702873735 -100
      vertex -1.4560379689748824 8.881438702873735 0
      vertex 0.48725017726875697 8.986800724660114 -100
    endloop
  endfacet
  facet normal -0.9766205557100867 0.21497044021102404 0
    outer loop
      vertex -8.947241614389236 0.9730711658154744 -100
      vertex -8.947241614389236 0.9730711658154744 0
      vertex -8.528878540645222 2.8737137712238194 0
    endloop
  endfacet
  facet normal -0.907575419670957 0.41988910156026477 0
    outer loop
      vertex -8.528878540645222 2.8737137712238194 -100
      vertex -8.528878540645222 2.8737137712238194 0
      vertex -7.711714585508302 4.639984714593196 0
    endloop
  endfacet
  facet normal 0 0 1
    outer loop
      vertex -8.528878540645222 -2.8737137712238194 0
      vertex -8.528878540645222 2.8737137712238194 0
      vertex -8.947241614389236 0.9730711658154744 0
    endloop
  endfacet
  facet normal 0 0 1
    outer loop
      vertex -7.711714585508302 -4.639984714593196 0
      vertex -7.711714585508302 4.639984714593196 0
      vertex -8.528878540645222 2.8737137712238194 0
    endloop
  endfacet
  facet normal 0 0 1
    outer loop
      vertex -7.711714585508302 4.639984714593196 0
      vertex -6.9 0 0
      vertex -6.620501517940032 1.943954642205866 0
    endloop
  endfacet
  facet normal 0 0 1
    outer loop
      vertex -7.711714585508302 4.639984714593196 0
      vertex -6.620501517940032 1.943954642205866 0
      vertex -5.804649376535151 3.7304216404436223 0
    endloop
  endfacet
  facet normal -0.796093065705644 0.6051742151937648 0
    outer loop
      vertex -7.711714585508302 4.639984714593196 -100
      vertex -7.711714585508302 4.639984714593196 0
      vertex -6.533959427308179 6.189295129680808 0
    endloop
  endfacet
  facet normal -0.6473862847818279 0.7621620551276364 0
    outer loop
      vertex -5.050683588261442 7.449200983412015 -100
      vertex -6.533959427308179 6.189295129680808 0
      vertex -5.050683588261442 7.449200983412015 0
    endloop
  endfacet
  facet normal 0 0 1
    outer loop
      vertex -7.711714585508302 4.639984714593196 0
      vertex -5.804649376535151 3.7304216404436223 0
      vertex -6.533959427308179 6.189295129680808 0
    endloop
  endfacet
  facet normal 0 0 1
    outer loop
      vertex -6.533959427308179 6.189295129680808 0
      vertex -5.804649376535151 3.7304216404436223 0
      vertex -4.518539064222467 5.214672063044383 0
    endloop
  endfacet
  facet normal 0 0 1
    outer loop
      vertex -6.533959427308179 6.189295129680808 0
      vertex -4.518539064222467 5.214672063044383 0
      vertex -5.050683588261442 7.449200983412015 0
    endloop
  endfacet
  facet normal -0.46840844069979 0.8835120444460229 0
    outer loop
      vertex -3.331243398059228 8.360790478351124 -100
      vertex -5.050683588261442 7.449200983412015 0
      vertex -3.331243398059228 8.360790478351124 0
    endloop
  endfacet
  facet normal -0.2675283385292206 0.963549992519223 0
    outer loop
      vertex -1.4560379689748824 8.881438702873735 -100
      vertex -3.331243398059228 8.360790478351124 0
      vertex -1.4560379689748824 8.881438702873735 0
    endloop
  endfacet
  facet normal -0.054138908585417055 0.9985334138511239 0
    outer loop
      vertex -1.4560379689748824 8.881438702873735 0
      vertex 0.48725017726875697 8.986800724660114 0
      vertex 0.48725017726875697 8.986800724660114 -100
    endloop
  endfacet
  facet normal 0 0 1
    outer loop
      vertex -5.050683588261442 7.449200983412015 0
      vertex -4.518539064222467 5.214672063044383 0
      vertex -2.8663635897130164 6.276460767946177 0
    endloop
  endfacet
  facet normal 0 0 1
    outer loop
      vertex -5.050683588261442 7.449200983412015 0
      vertex -2.8663635897130164 6.276460767946177 0
      vertex -3.331243398059228 8.360790478351124 0
    endloop
  endfacet
  facet normal 0 0 1
    outer loop
      vertex -3.331243398059228 8.360790478351124 0
      vertex -2.8663635897130164 6.276460767946177 0
      vertex -0.9819723840856681 6.829767948978436 0
    endloop
  endfacet
  facet normal 0 0 1
    outer loop
      vertex -3.331243398059228 8.360790478351124 0
      vertex -0.9819723840856681 6.829767948978436 0
      vertex -1.4560379689748824 8.881438702873735 0
    endloop
  endfacet
  facet normal 0 0 1
    outer loop
      vertex -1.4560379689748824 8.881438702873735 0
      vertex -0.9819723840856681 6.829767948978436 0
      vertex 0.48725017726875697 8.986800724660114 0
    endloop
  endfacet
  facet normal 0.16178199655276432 -0.9868265225415261 0
    outer loop
      vertex 0.4872501772687614 -8.986800724660114 -100
      vertex 2.407755046762988 -8.671949932673007 -100
      vertex 2.407755046762988 -8.671949932673007 0
    endloop
  endfacet
  facet normal 0.37013815533991434 -0.9289767198167915 0
    outer loop
      vertex 2.407755046762988 -8.671949932673007 -100
      vertex 4.215675966298109 -7.951608400014208 -100
      vertex 4.215675966298109 -7.951608400014208 0
    endloop
  endfacet
  facet normal 0 0 -1
    outer loop
      vertex 0.4872501772687614 -8.986800724660114 -100
      vertex 2.407755046762988 8.671949932673007 -100
      vertex 2.407755046762988 -8.671949932673007 -100
    endloop
  endfacet
  facet normal 0 0 -1
    outer loop
      vertex 2.407755046762988 -8.671949932673007 -100
      vertex 4.215675966298111 7.951608400014207 -100
      vertex 4.215675966298109 -7.951608400014208 -100
    endloop
  endfacet
  facet normal 0.5611870653623827 -0.8276889981568902 0
    outer loop
      vertex 4.215675966298109 -7.951608400014208 -100
      vertex 5.826476563036451 -6.859458496148726 -100
      vertex 5.826476563036451 -6.859458496148726 0
    endloop
  endfacet
  facet normal 0.7259954919231308 -0.6876994588534231 0
    outer loop
      vertex 5.826476563036451 -6.859458496148726 -100
      vertex 7.164837591350794 -5.446567936743886 -100
      vertex 5.826476563036451 -6.859458496148726 0
    endloop
  endfacet
  facet normal 0.856857176167589 -0.5155538571770218 0
    outer loop
      vertex 7.164837591350794 -5.446567936743886 -100
      vertex 8.168178777038612 -3.779001914042383 -100
      vertex 7.164837591350794 -5.446567936743886 0
    endloop
  endfacet
  facet normal 0 0 -1
    outer loop
      vertex 4.215675966298109 -7.951608400014208 -100
      vertex 5.826476563036448 6.859458496148728 -100
      vertex 5.826476563036451 -6.859458496148726 -100
    endloop
  endfacet
  facet normal 0 0 -1
    outer loop
      vertex 5.826476563036451 -6.859458496148726 -100
      vertex 7.164837591350794 5.446567936743886 -100
      vertex 7.164837591350794 -5.446567936743886 -100
    endloop
  endfacet
  facet normal 0 0 -1
    outer loop
      vertex 7.164837591350794 -5.446567936743886 -100
      vertex 8.168178777038612 3.7790019140423814 -100
      vertex 8.168178777038612 -3.779001914042383 -100
    endloop
  endfacet
  facet normal 0 0 -1
    outer loop
      vertex 8.168178777038612 -3.779001914042383 -100
      vertex 8.78958500139078 1.9347339618992168 -100
      vertex 8.789585001390781 -1.9347339618992137 -100
    endloop
  endfacet
  facet normal 0.9476531711828022 -0.3193015301359804 0
    outer loop
      vertex 8.168178777038612 -3.779001914042383 -100
      vertex 8.789585001390781 -1.9347339618992137 -100
      vertex 8.168178777038612 -3.779001914042383 0
    endloop
  endfacet
  facet normal 0.9941379571543597 -0.10811901842394125 0
    outer loop
      vertex 8.789585001390781 -1.9347339618992137 -100
      vertex 9 0 -100
      vertex 8.789585001390781 -1.9347339618992137 0
    endloop
  endfacet
  facet normal 0.16178199655276432 -0.9868265225415261 0
    outer loop
      vertex 0.4872501772687614 -8.986800724660114 -100
      vertex 2.407755046762988 -8.671949932673007 0
      vertex 0.4872501772687614 -8.986800724660114 0
    endloop
  endfacet
  facet normal 0.37013815533991434 -0.9289767198167915 0
    outer loop
      vertex 2.407755046762988 -8.671949932673007 -100
      vertex 4.215675966298109 -7.951608400014208 0
      vertex 2.407755046762988 -8.671949932673007 0
    endloop
  endfacet
  facet normal 0 0 1
    outer loop
      vertex 0.4872501772687614 -8.986800724660114 0
      vertex 0.9819723840856681 -6.829767948978436 0
      vertex -0.9819723840856681 -6.829767948978436 0
    endloop
  endfacet
  facet normal 0 0 1
    outer loop
      vertex 0.4872501772687614 -8.986800724660114 0
      vertex 2.407755046762988 -8.671949932673007 0
      vertex 0.9819723840856681 -6.829767948978436 0
    endloop
  endfacet
  facet normal 0 0 1
    outer loop
      vertex 2.407755046762988 -8.671949932673007 0
      vertex 2.866363589713018 -6.276460767946176 0
      vertex 0.9819723840856681 -6.829767948978436 0
    endloop
  endfacet
  facet normal 0 0 1
    outer loop
      vertex 2.407755046762988 -8.671949932673007 0
      vertex 4.215675966298109 -7.951608400014208 0
      vertex 2.866363589713018 -6.276460767946176 0
    endloop
  endfacet
  facet normal 0 0 1
    outer loop
      vertex 4.215675966298109 -7.951608400014208 0
      vertex 5.826476563036451 -6.859458496148726 0
      vertex 2.866363589713018 -6.276460767946176 0
    endloop
  endfacet
  facet normal 0 0 1
    outer loop
      vertex 5.826476563036451 -6.859458496148726 0
      vertex 4.51853906422247 -5.21467206304438 0
      vertex 2.866363589713018 -6.276460767946176 0
    endloop
  endfacet
  facet normal 0.5611870653623827 -0.8276889981568902 0
    outer loop
      vertex 4.215675966298109 -7.951608400014208 -100
      vertex 5.826476563036451 -6.859458496148726 0
      vertex 4.215675966298109 -7.951608400014208 0
    endloop
  endfacet
  facet normal 0.7259954919231308 -0.6876994588534231 0
    outer loop
      vertex 7.164837591350794 -5.446567936743886 -100
      vertex 7.164837591350794 -5.446567936743886 0
      vertex 5.826476563036451 -6.859458496148726 0
    endloop
  endfacet
  facet normal 0 0 1
    outer loop
      vertex 5.826476563036451 -6.859458496148726 0
      vertex 5.804649376535149 -3.7304216404436255 0
      vertex 4.51853906422247 -5.21467206304438 0
    endloop
  endfacet
  facet normal 0 0 1
    outer loop
      vertex 5.826476563036451 -6.859458496148726 0
      vertex 7.164837591350794 -5.446567936743886 0
      vertex 5.804649376535149 -3.7304216404436255 0
    endloop
  endfacet
  facet normal 0.856857176167589 -0.5155538571770218 0
    outer loop
      vertex 8.168178777038612 -3.779001914042383 -100
      vertex 8.168178777038612 -3.779001914042383 0
      vertex 7.164837591350794 -5.446567936743886 0
    endloop
  endfacet
  facet normal 0.9476531711828022 -0.3193015301359804 0
    outer loop
      vertex 8.789585001390781 -1.9347339618992137 -100
      vertex 8.789585001390781 -1.9347339618992137 0
      vertex 8.168178777038612 -3.779001914042383 0
    endloop
  endfacet
  facet normal 0.9941379571543597 -0.10811901842394125 0
    outer loop
      vertex 8.789585001390781 -1.9347339618992137 0
      vertex 9 0 -100
      vertex 9 0 0
    endloop
  endfacet
  facet normal 0 0 1
    outer loop
      vertex 7.164837591350794 -5.446567936743886 0
      vertex 6.620501517940032 -1.943954642205866 0
      vertex 5.804649376535149 -3.7304216404436255 0
    endloop
  endfacet
  facet normal 0 0 1
    outer loop
      vertex 7.164837591350794 -5.446567936743886 0
      vertex 6.9 0 0
      vertex 6.620501517940032 -1.943954642205866 0
    endloop
  endfacet
  facet normal 0 0 1
    outer loop
      vertex 7.164837591350794 -5.446567936743886 0
      vertex 8.168178777038612 -3.779001914042383 0
      vertex 7.164837591350794 5.446567936743886 0
    endloop
  endfacet
  facet normal 0 0 1
    outer loop
      vertex 8.168178777038612 -3.779001914042383 0
      vertex 8.789585001390781 -1.9347339618992137 0
      vertex 8.168178777038612 3.7790019140423814 0
    endloop
  endfacet
  facet normal 0 0 -1
    outer loop
      vertex 0.4872501772687614 -8.986800724660114 -100
      vertex 0.48725017726875697 8.986800724660114 -100
      vertex 2.407755046762988 8.671949932673007 -100
    endloop
  endfacet
  facet normal 0 0 -1
    outer loop
      vertex 2.407755046762988 -8.671949932673007 -100
      vertex 2.407755046762988 8.671949932673007 -100
      vertex 4.215675966298111 7.951608400014207 -100
    endloop
  endfacet
  facet normal 0.16178199655276396 0.9868265225415264 0
    outer loop
      vertex 0.48725017726875697 8.986800724660114 -100
      vertex 0.48725017726875697 8.986800724660114 0
      vertex 2.407755046762988 8.671949932673007 -100
    endloop
  endfacet
  facet normal 0.37013815533991445 0.9289767198167914 0
    outer loop
      vertex 2.407755046762988 8.671949932673007 -100
      vertex 2.407755046762988 8.671949932673007 0
      vertex 4.215675966298111 7.951608400014207 -100
    endloop
  endfacet
  facet normal 0 0 -1
    outer loop
      vertex 5.826476563036451 -6.859458496148726 -100
      vertex 5.826476563036448 6.859458496148728 -100
      vertex 7.164837591350794 5.446567936743886 -100
    endloop
  endfacet
  facet normal 0 0 -1
    outer loop
      vertex 4.215675966298109 -7.951608400014208 -100
      vertex 4.215675966298111 7.951608400014207 -100
      vertex 5.826476563036448 6.859458496148728 -100
    endloop
  endfacet
  facet normal 0 0 -1
    outer loop
      vertex 7.164837591350794 -5.446567936743886 -100
      vertex 7.164837591350794 5.446567936743886 -100
      vertex 8.168178777038612 3.7790019140423814 -100
    endloop
  endfacet
  facet normal 0 0 -1
    outer loop
      vertex 8.168178777038612 -3.779001914042383 -100
      vertex 8.168178777038612 3.7790019140423814 -100
      vertex 8.78958500139078 1.9347339618992168 -100
    endloop
  endfacet
  facet normal 0 0 -1
    outer loop
      vertex 8.789585001390781 -1.9347339618992137 -100
      vertex 8.78958500139078 1.9347339618992168 -100
      vertex 9 0 -100
    endloop
  endfacet
  facet normal 0.9941379571543596 0.10811901842394198 0
    outer loop
      vertex 9 0 -100
      vertex 8.78958500139078 1.9347339618992168 -100
      vertex 9 0 0
    endloop
  endfacet
  facet normal 0.8568571761675894 0.5155538571770215 0
    outer loop
      vertex 8.168178777038612 3.7790019140423814 -100
      vertex 7.164837591350794 5.446567936743886 -100
      vertex 8.168178777038612 3.7790019140423814 0
    endloop
  endfacet
  facet normal 0.9476531711828025 0.31930153013598034 0
    outer loop
      vertex 8.78958500139078 1.9347339618992168 -100
      vertex 8.168178777038612 3.7790019140423814 -100
      vertex 8.78958500139078 1.9347339618992168 0
    endloop
  endfacet
  facet normal 0.725995491923131 0.6876994588534232 0
    outer loop
      vertex 5.826476563036448 6.859458496148728 -100
      vertex 7.164837591350794 5.446567936743886 0
      vertex 7.164837591350794 5.446567936743886 -100
    endloop
  endfacet
  facet normal 0.5611870653623826 0.8276889981568903 0
    outer loop
      vertex 4.215675966298111 7.951608400014207 -100
      vertex 4.215675966298111 7.951608400014207 0
      vertex 5.826476563036448 6.859458496148728 -100
    endloop
  endfacet
  facet normal 0.16178199655276396 0.9868265225415264 0
    outer loop
      vertex 2.407755046762988 8.671949932673007 -100
      vertex 0.48725017726875697 8.986800724660114 0
      vertex 2.407755046762988 8.671949932673007 0
    endloop
  endfacet
  facet normal 0.37013815533991445 0.9289767198167914 0
    outer loop
      vertex 4.215675966298111 7.951608400014207 -100
      vertex 2.407755046762988 8.671949932673007 0
      vertex 4.215675966298111 7.951608400014207 0
    endloop
  endfacet
  facet normal 0 0 1
    outer loop
      vertex 0.48725017726875697 8.986800724660114 0
      vertex -0.9819723840856681 6.829767948978436 0
      vertex 0.9819723840856681 6.829767948978436 0
    endloop
  endfacet
  facet normal 0 0 1
    outer loop
      vertex 2.407755046762988 8.671949932673007 0
      vertex 0.9819723840856681 6.829767948978436 0
      vertex 2.8663635897130164 6.276460767946177 0
    endloop
  endfacet
  facet normal 0 0 1
    outer loop
      vertex 0.48725017726875697 8.986800724660114 0
      vertex 0.9819723840856681 6.829767948978436 0
      vertex 2.407755046762988 8.671949932673007 0
    endloop
  endfacet
  facet normal 0 0 1
    outer loop
      vertex 4.215675966298111 7.951608400014207 0
      vertex 2.8663635897130164 6.276460767946177 0
      vertex 4.518539064222467 5.214672063044383 0
    endloop
  endfacet
  facet normal 0 0 1
    outer loop
      vertex 2.407755046762988 8.671949932673007 0
      vertex 2.8663635897130164 6.276460767946177 0
      vertex 4.215675966298111 7.951608400014207 0
    endloop
  endfacet
  facet normal 0.9941379571543596 0.10811901842394198 0
    outer loop
      vertex 8.78958500139078 1.9347339618992168 -100
      vertex 8.78958500139078 1.9347339618992168 0
      vertex 9 0 0
    endloop
  endfacet
  facet normal 0.9476531711828025 0.31930153013598034 0
    outer loop
      vertex 8.168178777038612 3.7790019140423814 -100
      vertex 8.168178777038612 3.7790019140423814 0
      vertex 8.78958500139078 1.9347339618992168 0
    endloop
  endfacet
  facet normal 0 0 1
    outer loop
      vertex 5.826476563036448 6.859458496148728 0
      vertex 5.804649376535151 3.7304216404436232 0
      vertex 6.620501517940032 1.943954642205865 0
    endloop
  endfacet
  facet normal 0 0 1
    outer loop
      vertex 7.164837591350794 -5.446567936743886 0
      vertex 7.164837591350794 5.446567936743886 0
      vertex 6.9 0 0
    endloop
  endfacet
  facet normal 0 0 1
    outer loop
      vertex 8.168178777038612 -3.779001914042383 0
      vertex 8.168178777038612 3.7790019140423814 0
      vertex 7.164837591350794 5.446567936743886 0
    endloop
  endfacet
  facet normal 0 0 1
    outer loop
      vertex 8.789585001390781 -1.9347339618992137 0
      vertex 9 0 0
      vertex 8.78958500139078 1.9347339618992168 0
    endloop
  endfacet
  facet normal 0 0 1
    outer loop
      vertex 8.789585001390781 -1.9347339618992137 0
      vertex 8.78958500139078 1.9347339618992168 0
      vertex 8.168178777038612 3.7790019140423814 0
    endloop
  endfacet
  facet normal 0 0 1
    outer loop
      vertex 7.164837591350794 5.446567936743886 0
      vertex 6.620501517940032 1.943954642205865 0
      vertex 6.9 0 0
    endloop
  endfacet
  facet normal 0.725995491923131 0.6876994588534232 0
    outer loop
      vertex 5.826476563036448 6.859458496148728 -100
      vertex 5.826476563036448 6.859458496148728 0
      vertex 7.164837591350794 5.446567936743886 0
    endloop
  endfacet
  facet normal 0.5611870653623826 0.8276889981568903 0
    outer loop
      vertex 5.826476563036448 6.859458496148728 -100
      vertex 4.215675966298111 7.951608400014207 0
      vertex 5.826476563036448 6.859458496148728 0
    endloop
  endfacet
  facet normal 0.8568571761675894 0.5155538571770215 0
    outer loop
      vertex 7.164837591350794 5.446567936743886 -100
      vertex 7.164837591350794 5.446567936743886 0
      vertex 8.168178777038612 3.7790019140423814 0
    endloop
  endfacet
  facet normal 0 0 1
    outer loop
      vertex 5.826476563036448 6.859458496148728 0
      vertex 4.518539064222467 5.214672063044383 0
      vertex 5.804649376535151 3.7304216404436232 0
    endloop
  endfacet
  facet normal 0 0 1
    outer loop
      vertex 4.215675966298111 7.951608400014207 0
      vertex 4.518539064222467 5.214672063044383 0
      vertex 5.826476563036448 6.859458496148728 0
    endloop
  endfacet
  facet normal 0 0 1
    outer loop
      vertex 5.826476563036448 6.859458496148728 0
      vertex 6.620501517940032 1.943954642205865 0
      vertex 7.164837591350794 5.446567936743886 0
    endloop
  endfacet
endsolid OpenSCAD_Model
